<svg width="126" height="30" viewBox="0 0 126 30" fill="none" xmlns="http://www.w3.org/2000/svg">
<g clip-path="url(#clip0_750_473)">
<path d="M36.9708 17.9245C36.9708 17.9113 36.9708 17.9113 36.9708 17.9245V17.8981V17.8849C36.9708 17.8717 36.9708 17.8585 36.9708 17.8453C36.9708 17.8321 36.9708 17.8189 36.9708 17.8057C36.9708 17.7925 36.9708 17.7925 36.9708 17.7793V17.7661V17.7529C36.9708 17.6869 36.9356 17.6077 36.8768 17.5813C35.068 16.75 33.7994 17.3042 32.566 17.8321C31.3445 18.3731 30.1816 18.8746 28.4784 18.0828C26.7753 17.3042 26.2702 16.0242 25.7416 14.6781C25.2013 13.3321 24.6492 11.9333 22.8403 11.0887C21.0314 10.2573 19.7629 10.8116 18.5295 11.3394C17.308 11.8805 16.1451 12.3819 14.4419 11.5901C12.7387 10.8116 12.2337 9.53149 11.7051 8.18545C11.1648 6.82622 10.601 5.42739 8.79208 4.58281C6.98319 3.75144 5.71462 4.30569 4.48129 4.84674C3.48287 5.28223 2.53144 5.70452 1.28636 5.41419C1.20414 5.3878 1.12192 5.45378 1.11017 5.54616C1.09843 5.63853 1.14541 5.73091 1.22763 5.7441C2.55494 6.04762 3.60033 5.59894 4.59875 5.16346C5.82033 4.6224 6.98319 4.12094 8.68636 4.91273C10.3895 5.69132 10.8946 6.97138 11.4232 8.31742C11.9635 9.66346 12.5156 11.0623 14.3245 11.9069C16.1333 12.7382 17.4019 12.184 18.6353 11.6561C19.8568 11.1151 21.0197 10.6136 22.7229 11.4054C24.1089 12.0388 24.6962 13.0022 25.166 14.0711C24.6727 13.1737 23.9914 12.3423 22.7111 11.8277C20.8787 11.0887 19.6454 11.6957 18.4473 12.2896C17.2492 12.8834 16.1216 13.4377 14.4067 12.7382C12.6918 12.0388 12.1397 10.7984 11.5641 9.49191C10.9768 8.17226 10.3778 6.81302 8.54541 6.07402C6.71303 5.33501 5.4797 5.94205 4.2816 6.53589C3.31843 7.01097 2.40224 7.45965 1.18065 7.2617C1.09843 7.2485 1.01621 7.31449 1.00446 7.40686C0.992714 7.49924 1.05144 7.59161 1.13367 7.60481C2.44922 7.82915 3.44763 7.34088 4.41081 6.86581C5.6089 6.27196 6.73652 5.71771 8.45144 6.41713C10.1664 7.11654 10.7184 8.35701 11.294 9.66346C11.8813 10.9831 12.4803 12.3423 14.3127 13.0813C16.1451 13.8204 17.3784 13.2133 18.5765 12.6195C19.7746 12.0256 20.9022 11.4714 22.6172 12.1708C24.0972 12.7778 24.708 13.7808 25.2248 14.8893C24.6845 13.9523 23.9797 13.0813 22.5937 12.5931C20.7495 11.9465 19.5397 12.6063 18.3768 13.2529C17.214 13.8995 16.1099 14.5066 14.3832 13.8995C12.6565 13.2925 12.0575 12.0784 11.4349 10.8116C10.7772 9.49191 10.1194 8.15906 8.27525 7.51243C6.43113 6.86581 5.22129 7.52563 4.05843 8.17226C3.17748 8.66053 2.35525 9.10921 1.26287 9.05642C1.18065 9.05642 1.11017 9.1224 1.09843 9.21478C1.09843 9.30715 1.15716 9.38633 1.23938 9.39953C2.41398 9.45232 3.31843 8.96405 4.18763 8.47578C5.35049 7.82915 6.45462 7.22211 8.18129 7.82915C9.90795 8.44938 10.507 9.66346 11.1295 10.9303C11.7638 12.2104 12.4099 13.53 14.2657 14.1899C16.1099 14.8365 17.3197 14.1767 18.4826 13.53C19.6454 12.8834 20.7495 12.2764 22.4762 12.8834C24.0737 13.4508 24.6962 14.5198 25.2835 15.6811C24.6962 14.6781 23.9445 13.7544 22.441 13.2925C20.5733 12.7382 19.3987 13.4508 18.2594 14.1503C17.12 14.8497 16.0511 15.5095 14.3127 14.9816C12.5743 14.4538 11.9283 13.2925 11.2587 12.052C10.5775 10.8116 9.88446 9.5315 8.01684 8.96405C6.14922 8.40979 4.97462 9.1224 3.83525 9.82182C2.90732 10.4025 2.03811 10.9435 0.793031 10.8511C0.710809 10.8511 0.640333 10.9171 0.628587 11.0095C0.616841 11.1019 0.687317 11.1811 0.769539 11.1943C2.09684 11.2998 3.04827 10.7192 3.97621 10.1517C5.11557 9.45232 6.19621 8.79249 7.93462 9.30715C9.67303 9.83501 10.3191 10.9963 10.9886 12.2368C11.6699 13.4772 12.3629 14.7573 14.2305 15.3247C16.0864 15.879 17.2727 15.1664 18.4121 14.467C19.5514 13.7676 20.6203 13.1077 22.3587 13.6356C24.0972 14.1635 24.7432 15.3247 25.4127 16.5652C24.7549 15.4963 23.9797 14.467 22.3 14.0447C20.4207 13.5828 19.2813 14.3614 18.1654 15.1136C17.0613 15.8658 16.0159 16.5784 14.254 16.1429C12.4921 15.7074 11.8108 14.5726 11.0943 13.3717C10.366 12.1708 9.62605 10.9171 7.74668 10.4552C5.86732 9.99337 4.72795 10.772 3.61208 11.5242C2.74287 12.1048 1.9324 12.6591 0.769539 12.6855C0.687317 12.6855 0.616841 12.7646 0.616841 12.857C0.640333 12.9362 0.699063 13.0022 0.793031 13.0022C2.03811 12.989 2.91906 12.3819 3.78827 11.8013C4.8924 11.0491 5.93779 10.3365 7.68795 10.772C9.44986 11.2074 10.1311 12.3423 10.8476 13.5432C11.5759 14.7441 12.3159 15.9978 14.1953 16.4596C16.0746 16.9215 17.214 16.1429 18.3299 15.3907C19.434 14.6385 20.4794 13.9259 22.2295 14.3614C23.9914 14.7969 24.6727 15.9318 25.3892 17.1327C25.4597 17.2514 25.5419 17.3834 25.6124 17.5022C24.8489 16.3409 24.0502 15.14 22.1591 14.7705C20.268 14.401 19.1521 15.2324 18.0714 16.0374C17.0026 16.8423 15.9806 17.5945 14.207 17.2514C12.4333 16.9083 11.7051 15.7998 10.9416 14.6385C10.1664 13.464 9.37938 12.2632 7.47652 11.8937C5.58541 11.5242 4.46954 12.3555 3.3889 13.1605C2.55494 13.7808 1.76795 14.3746 0.616841 14.4538C0.534619 14.4538 0.464143 14.5462 0.475889 14.6385C0.475889 14.7309 0.558111 14.8101 0.640333 14.7969C1.86192 14.7177 2.73113 14.0711 3.55335 13.4508C4.62224 12.6459 5.64414 11.8937 7.41779 12.2368C9.19144 12.5799 9.9197 13.6884 10.6832 14.8497C11.4584 16.0242 12.2454 17.225 14.1483 17.5945C16.0394 17.964 17.1553 17.1327 18.2359 16.3277C19.3048 15.5227 20.3267 14.7705 22.1003 15.1136C23.874 15.4567 24.6022 16.5652 25.3657 17.7265C26.141 18.901 26.928 20.1019 28.8308 20.4714C29.148 20.5374 29.4533 20.5638 29.7235 20.5638C30.0759 20.5638 30.4048 20.511 30.6984 20.4318C30.2051 20.5901 29.6413 20.6429 28.96 20.5374C27.1746 20.2734 26.3994 19.2045 25.5889 18.0828C24.7784 16.9479 23.9327 15.7866 22.0181 15.4963C20.1035 15.2192 19.0229 16.1033 17.9775 16.9611C16.9321 17.8189 15.9454 18.6239 14.16 18.3731C12.3746 18.1092 11.5994 17.0403 10.7889 15.9186C9.97843 14.7837 9.13271 13.6224 7.21811 13.3321C5.30351 13.055 4.22287 13.9391 3.17748 14.7969C2.37875 15.4567 1.627 16.0769 0.511127 16.2221C0.428904 16.2353 0.370174 16.3145 0.38192 16.4201C0.393666 16.5124 0.464143 16.5784 0.558111 16.5652C1.75621 16.4464 2.57843 15.7734 3.37716 15.1136C4.42256 14.2558 5.40922 13.4508 7.19462 13.7016C8.98002 13.9655 9.75525 15.0344 10.5657 16.1561C11.3762 17.291 12.2219 18.4523 14.1365 18.7426C16.0511 19.0198 17.1318 18.1356 18.1772 17.2778C19.2226 16.4201 20.2092 15.6151 21.9946 15.8658C23.78 16.1297 24.5553 17.1986 25.3657 18.3204C26.1762 19.4552 27.0219 20.6165 28.9365 20.9069C29.1832 20.9464 29.4064 20.9596 29.6295 20.9596C30.0641 20.9596 30.4635 20.8937 30.8159 20.7749C30.3226 20.9596 29.747 21.052 29.054 20.9728C27.2451 20.8013 26.4346 19.772 25.5772 18.6767C24.7197 17.5813 23.827 16.4464 21.9006 16.2617C19.9743 16.0769 18.9289 17.0139 17.907 17.9377C16.8968 18.8482 15.9337 19.706 14.1365 19.5344C12.3276 19.3629 11.5172 18.3335 10.6597 17.2382C9.79049 16.1561 8.89779 15.0212 6.97144 14.8365C5.04509 14.6517 3.98795 15.5887 2.97779 16.5124C2.2143 17.1986 1.49779 17.8453 0.405412 18.0564C0.32319 18.0696 0.26446 18.162 0.276206 18.2544C0.287952 18.3467 0.370174 18.4127 0.452396 18.3995C1.61525 18.1752 2.40224 17.4626 3.15398 16.7764C4.16414 15.8658 5.12732 15.008 6.92446 15.1796C8.73335 15.3511 9.54383 16.3805 10.4013 17.4758C11.2587 18.5711 12.1514 19.706 14.0778 19.8907C16.0041 20.0755 17.0613 19.1385 18.0714 18.2148C19.0816 17.3042 20.0448 16.4465 21.8419 16.618C23.6508 16.7896 24.4613 17.8189 25.3187 18.9142C26.1762 20.0095 27.0689 21.1444 28.9953 21.3291C29.1597 21.3423 29.3241 21.3555 29.4768 21.3555C29.9937 21.3555 30.44 21.2632 30.8511 21.118C30.3695 21.316 29.8057 21.4347 29.1127 21.3951C27.2921 21.3028 26.4346 20.313 25.5302 19.2573C24.6257 18.2016 23.686 17.1063 21.7362 17.0139C19.7864 16.9215 18.7762 17.9245 17.7895 18.8878C16.8029 19.8511 15.8749 20.7617 14.0543 20.6825C12.2337 20.5901 11.3762 19.6004 10.4718 18.5447C9.60256 17.489 8.66287 16.3937 6.71303 16.3013C4.77494 16.2089 3.75303 17.2118 2.76636 18.1752C2.02636 18.901 1.33335 19.5872 0.252714 19.8511C0.170492 19.8775 0.111762 19.9699 0.135254 20.0623C0.158746 20.1547 0.240968 20.2074 0.32319 20.1943C1.4743 19.9039 2.23779 19.1649 2.97779 18.4391C3.96446 17.4758 4.8924 16.5652 6.71303 16.6444C8.53367 16.7368 9.39113 17.7265 10.2956 18.7822C11.2 19.8379 12.1397 20.9333 14.0895 21.0256C16.0394 21.118 17.0495 20.1151 18.0362 19.1517C19.0229 18.1884 19.9508 17.2778 21.7714 17.357C23.5921 17.4494 24.4495 18.4391 25.354 19.4948C26.2584 20.5506 27.1981 21.6459 29.148 21.7382C29.2302 21.7382 29.3124 21.7382 29.3946 21.7382C30.0172 21.7382 30.5457 21.6195 31.0038 21.4215C30.5222 21.6591 29.9467 21.8042 29.2419 21.8042C27.4095 21.8042 26.5051 20.8409 25.5537 19.8247C24.6022 18.8086 23.6156 17.7529 21.654 17.7529C19.6924 17.7529 18.7057 18.8086 17.7543 19.8247C16.8029 20.8409 15.8984 21.8042 14.066 21.8042C12.2337 21.8042 11.3292 20.8409 10.3778 19.8247C9.42636 18.8086 8.4397 17.7529 6.47811 17.7529C4.51652 17.7529 3.52986 18.8086 2.57843 19.8247C1.86192 20.5901 1.18065 21.316 0.111762 21.6327C0.0295394 21.6591 -0.0174448 21.7514 0.00604729 21.8438C0.0295394 21.9362 0.111762 21.989 0.193984 21.9626C1.34509 21.6195 2.08509 20.8277 2.78986 20.0623C3.74129 19.0462 4.64573 18.0828 6.47811 18.0828C8.31049 18.0828 9.21494 19.0462 10.1664 20.0623C11.1178 21.0784 12.1045 22.1341 14.066 22.1341C16.0276 22.1341 17.0143 21.0784 17.9657 20.0623C18.9172 19.0462 19.8216 18.0828 21.654 18.0828C23.4864 18.0828 24.3908 19.0462 25.3422 20.0623C26.2937 21.0784 27.2803 22.1341 29.2419 22.1341C31.2035 22.1341 32.1902 21.0784 33.1416 20.0623C34.093 19.0462 34.9975 18.0828 36.8299 18.0828C36.9003 18.1092 36.9708 18.03 36.9708 17.9245Z" fill="url(#paint0_linear_750_473)"/>
</g>
<path d="M49.84 9.98C49.8933 10.3 49.88 10.7067 49.8 11.2C49.8 11.3467 49.7867 11.4933 49.76 11.64C49.6667 12.04 49.62 12.3067 49.62 12.44C49.62 12.6267 49.58 13.0267 49.5 13.64C49.4733 14.0933 49.46 14.7933 49.46 15.74C49.46 16.6867 49.5133 17.5 49.62 18.18C49.7267 18.86 49.8267 19.2133 49.92 19.24C50.0267 19.2533 50.1267 19.1733 50.22 19C50.2067 18.9333 50.2467 18.76 50.34 18.48C50.46 17.7733 50.5933 17.1467 50.74 16.6C50.8867 16.0533 50.9667 15.7 50.98 15.54C50.9933 15.4467 51.0333 15.1933 51.1 14.78C51.22 14.3533 51.2933 13.9067 51.32 13.44V13.28C51.3733 12.56 51.4 12.0533 51.4 11.76C51.4 11.4667 51.3933 11.22 51.38 11.02L51.4 10.28C51.4133 10.1067 51.4733 9.96 51.58 9.84C51.5933 9.84 51.64 9.82 51.72 9.78C51.8133 9.74 51.9 9.70667 51.98 9.68C52.0733 9.64 52.22 9.64667 52.42 9.7C52.62 9.74 52.7533 9.78667 52.82 9.84C52.8867 9.88 52.94 9.93333 52.98 10C53.02 10.0667 53.0533 10.1267 53.08 10.18C53.1067 10.22 53.1333 10.2933 53.16 10.4C53.2 10.6267 53.24 11.0667 53.28 11.72C53.32 12.3733 53.3333 12.8 53.32 13C53.3067 13.2 53.3 13.4467 53.3 13.74L53.28 14.02C53.28 14.1933 53.2467 14.6733 53.18 15.46C53.1133 16.2333 53.0533 16.7133 53 16.9C52.9733 17.14 52.96 17.2867 52.96 17.34L52.9 17.68C52.9 17.72 52.8933 17.76 52.88 17.8C52.8667 17.84 52.8267 18 52.76 18.28C52.6933 18.5467 52.6533 18.6933 52.64 18.72L52.54 19.16C52.2733 19.7733 52.1067 20.12 52.04 20.2C52.04 20.2667 51.9067 20.4467 51.64 20.74L51.32 21.16L51.16 21.28C50.64 21.8 50.06 21.84 49.42 21.4L48.92 21.04C48.84 20.92 48.7333 20.8 48.6 20.68C48.5867 20.64 48.5267 20.5667 48.42 20.46C48.3133 20.34 48.22 20.22 48.14 20.1C48.06 19.9667 48.02 19.88 48.02 19.84C48.02 19.7867 47.96 19.6333 47.84 19.38C47.76 19.2733 47.6867 19.1267 47.62 18.94C47.5933 18.9133 47.54 18.7667 47.46 18.5C47.4067 18.4067 47.3667 18.2333 47.34 17.98L47.1 18.9C47.1 19.0067 47.0533 19.1667 46.96 19.38L46.84 19.78C46.3067 21.06 46 21.76 45.92 21.88C45.68 22.1733 45.48 22.36 45.32 22.44C45.16 22.5333 44.92 22.56 44.6 22.52C44.3467 22.5067 43.9333 22.4133 43.36 22.24L43.04 21.9C42.9067 21.7667 42.8267 21.6067 42.8 21.42C42.6667 21.1133 42.5733 20.9 42.52 20.78C42.48 20.66 42.4333 20.4333 42.38 20.1V19.6C42.3533 19.56 42.3333 19.2867 42.32 18.78C42.2933 18.5667 42.28 18.44 42.28 18.4L42.3 18.26C42.22 18.18 42.1667 17.8133 42.14 17.16L42.12 17.02C42.12 16.98 42.1133 16.9133 42.1 16.82C42.0867 16.7267 42.06 16.5 42.02 16.14L41.96 15.1C41.9867 14.9667 41.9867 14.7933 41.96 14.58V14.2C41.96 13.44 42.0133 12.9 42.12 12.58L42.2 12.18C42.2 12.1267 42.2133 12.0533 42.24 11.96C42.28 11.7867 42.3267 11.6133 42.38 11.44C42.4333 11.2533 42.4733 11.0533 42.5 10.84C42.5267 10.6133 42.5733 10.4533 42.64 10.36C42.7067 10.2533 42.8133 10.1267 42.96 9.98C43.1067 9.83333 43.2333 9.74 43.34 9.7C43.58 9.66 43.7333 9.64 43.8 9.64C43.9467 9.58667 44.1933 9.6 44.54 9.68C44.6467 9.68 44.8067 9.73333 45.02 9.84C45.1533 9.93333 45.2267 10.0667 45.24 10.24C45.2667 10.4267 45.2467 10.7467 45.18 11.2C45.1133 11.64 45.06 11.88 45.02 11.92C45.0867 11.9867 45.0933 12.1533 45.04 12.42C45.04 12.7533 45.02 13.1 44.98 13.46C44.9533 13.8067 44.94 14.0267 44.94 14.12V14.36C44.9267 14.48 44.92 14.6333 44.92 14.82C44.88 15.0333 44.86 15.3667 44.86 15.82C44.8333 16.1267 44.8267 16.3267 44.84 16.42L44.8 16.82V17.1C44.8 17.26 44.8067 17.3733 44.82 17.44C44.7933 17.7467 44.7867 18.1467 44.8 18.64C44.8267 19.1333 44.8667 19.38 44.92 19.38L45.58 18.26C45.6333 18.14 45.7333 17.8267 45.88 17.32L46.6 15.96C46.7467 15.5333 46.8333 15.2933 46.86 15.24L47 14.9C47.0667 14.8733 47.1133 14.7867 47.14 14.64C47.18 14.4933 47.2267 14.3133 47.28 14.1C47.3467 13.8867 47.3867 13.58 47.4 13.18C47.4133 12.7667 47.4733 12.4533 47.58 12.24C47.58 11.96 47.6533 11.4733 47.8 10.78C47.8267 10.5667 47.84 10.4067 47.84 10.3C47.9733 9.94 48.1133 9.69333 48.26 9.56C48.4067 9.41333 48.68 9.38667 49.08 9.48C49.4933 9.56 49.7467 9.72667 49.84 9.98ZM55.5431 18.98C55.5698 18.94 55.5765 18.84 55.5631 18.68C55.4831 18.1733 55.4698 17.8333 55.5231 17.66C55.4698 16.9267 55.4498 16.4933 55.4631 16.36C55.4898 16.2267 55.5298 16.1533 55.5831 16.14C55.5298 16.06 55.4765 15.76 55.4231 15.24C55.3831 14.7067 55.3765 14.3533 55.4031 14.18C55.3365 13.8867 55.3498 13.6467 55.4431 13.46C55.4165 13.4333 55.3965 13.3267 55.3831 13.14V12.2C55.4098 11.8533 55.4231 11.6733 55.4231 11.66V11.22L55.5431 10.58C55.5031 10.5 55.5365 10.3733 55.6431 10.2C55.4965 9.90667 55.6365 9.54667 56.0631 9.12C56.0765 9.09333 56.2298 9.00667 56.5231 8.86C56.7631 8.84667 56.9231 8.84667 57.0031 8.86C57.0965 8.87333 57.2298 8.88667 57.4031 8.9C57.5898 8.91333 57.7231 8.93333 57.8031 8.96C58.0565 9.04 58.1831 9.26 58.1831 9.62V9.98C58.2098 10.46 58.2231 10.8267 58.2231 11.08V11.54C58.2231 11.7267 58.2098 11.8333 58.1831 11.86C58.1965 11.9133 58.1965 12.04 58.1831 12.24V12.6C58.1431 13.0267 58.1298 13.2733 58.1431 13.34L58.0031 14.38C58.0965 14.4467 58.2298 14.48 58.4031 14.48C58.5631 14.4533 59.0165 14.4467 59.7631 14.46L60.8631 14.42H61.1231C61.3765 14.42 61.5498 14.3867 61.6431 14.32C61.6431 14.0133 61.6765 13.6467 61.7431 13.22C61.8231 13.1533 61.8431 12.86 61.8031 12.34C61.8031 12.2867 61.8298 12.18 61.8831 12.02C61.8831 11.82 61.9098 11.6 61.9631 11.36C61.9631 11.08 62.0031 10.84 62.0831 10.64C62.1765 10.44 62.2431 10.2733 62.2831 10.14C62.3365 9.91333 62.4898 9.72 62.7431 9.56C63.1031 9.29333 63.4231 9.13333 63.7031 9.08H64.0631C64.4231 9.14667 64.5431 9.5 64.4231 10.14C64.4231 10.3533 64.3698 10.62 64.2631 10.94C64.1431 11.5933 64.0831 12.0133 64.0831 12.2C64.0831 12.4133 64.0298 12.7667 63.9231 13.26C63.9498 13.54 63.9498 13.72 63.9231 13.8C63.9098 13.8667 63.9031 13.9667 63.9031 14.1C63.8765 14.3933 63.8631 14.6 63.8631 14.72C63.8365 15.12 63.8231 15.4467 63.8231 15.7C63.8231 15.9533 63.8031 16.2267 63.7631 16.52C63.7631 16.8133 63.7165 17.1067 63.6231 17.4L63.5631 18.74C63.5631 18.8467 63.6098 19.5533 63.7031 20.86C63.7831 20.9533 63.8098 21.12 63.7831 21.36C63.7565 21.6 63.7098 21.7667 63.6431 21.86C63.5765 21.9533 63.5031 22.0067 63.4231 22.02C63.3565 22.0333 63.2498 22.04 63.1031 22.04C62.8098 22.2267 62.5631 22.3 62.3631 22.26C62.2165 22.26 62.0298 22.1933 61.8031 22.06C61.5765 21.9267 61.4231 21.7533 61.3431 21.54C61.3431 21.4333 61.3231 21.3133 61.2831 21.18C61.2565 21.0467 61.2565 20.9 61.2831 20.74C61.3098 20.58 61.3165 20.4133 61.3031 20.24C61.3031 20.0533 61.3031 19.84 61.3031 19.6L61.3231 19.36C61.2965 19.3067 61.3098 19.22 61.3631 19.1C61.4165 18.9667 61.4231 18.8667 61.3831 18.8V18.24L61.4831 17.18C61.3498 17.0733 61.3431 16.8467 61.4631 16.5L61.5031 16.34C61.3431 16.38 61.1965 16.4 61.0631 16.4C60.6898 16.4933 60.2765 16.54 59.8231 16.54L58.0231 16.5C58.0231 16.6067 58.0298 16.6733 58.0431 16.7C58.0165 16.9133 58.0098 17.2467 58.0231 17.7V18.1C58.0365 18.46 58.0431 18.9667 58.0431 19.62C58.0965 20.3667 58.1231 20.8867 58.1231 21.18L58.1031 21.32C58.1031 21.44 58.0898 21.54 58.0631 21.62C58.0631 21.8867 57.9965 22.0667 57.8631 22.16C57.7431 22.2533 57.5431 22.3133 57.2631 22.34C56.9831 22.3667 56.7298 22.2933 56.5031 22.12C56.1965 21.96 56.0231 21.8067 55.9831 21.66C55.9831 21.5667 55.9498 21.4333 55.8831 21.26C55.8165 21.1533 55.7698 21.02 55.7431 20.86C55.7431 20.42 55.7365 20.1733 55.7231 20.12C55.6831 20.0667 55.6631 19.9667 55.6631 19.82C55.6631 19.6467 55.6231 19.3667 55.5431 18.98ZM72.7978 11C72.8378 11.1733 72.8045 11.2933 72.6978 11.36C72.5911 11.4133 72.4778 11.44 72.3578 11.44C72.2511 11.44 71.9578 11.4533 71.4778 11.48C71.1711 11.5467 70.8645 11.6333 70.5578 11.74H70.5378C70.5378 11.98 70.4711 12.3333 70.3378 12.8C70.3378 12.96 70.3045 13.22 70.2378 13.58C70.2378 13.6867 70.2178 13.7933 70.1778 13.9C70.1378 14.0067 70.1178 14.1733 70.1178 14.4C70.0245 14.9467 69.9845 15.2467 69.9978 15.3C70.0111 15.3533 70.0111 15.4267 69.9978 15.52C69.9845 15.6133 69.9578 15.7533 69.9178 15.94C69.8778 16.1267 69.8578 16.3467 69.8578 16.6C69.8578 16.8533 69.8245 17.08 69.7578 17.28V17.5C69.7845 17.98 69.7645 18.32 69.6978 18.52C69.6445 18.72 69.6178 18.8933 69.6178 19.04C69.6178 19.1733 69.5845 19.3867 69.5178 19.68C69.4511 19.9733 69.4311 20.32 69.4578 20.72H69.5778C69.9111 20.6933 70.0845 20.6867 70.0978 20.7C70.1245 20.7 70.2178 20.68 70.3778 20.64L70.6978 20.66H70.8978C70.9378 20.66 71.0245 20.7133 71.1578 20.82C71.2911 20.9133 71.3845 21.0067 71.4378 21.1C71.5311 21.1933 71.5578 21.2867 71.5178 21.38C71.4911 21.46 71.3445 21.6 71.0778 21.8L70.6978 21.92C70.6578 21.96 70.5645 22.0067 70.4178 22.06C70.2711 22.1133 70.1445 22.14 70.0378 22.14C69.7311 22.2067 69.5511 22.32 69.4978 22.48C69.4445 22.5867 69.1245 22.6267 68.5378 22.6H67.8578L67.4778 22.72C67.1445 22.8533 66.8511 22.8867 66.5978 22.82C66.3445 22.7533 66.1711 22.7 66.0778 22.66C65.9978 22.6333 65.8978 22.5667 65.7778 22.46C65.6578 22.3667 65.6045 22.2533 65.6178 22.12C65.6445 22 65.6911 21.82 65.7578 21.58C65.9845 21.3933 66.1445 21.2733 66.2378 21.22C66.8778 21.02 67.2845 20.8867 67.4578 20.82C67.4578 20.38 67.4445 20.12 67.4178 20.04C67.4578 20.0267 67.5045 19.74 67.5578 19.18C67.5711 19.1267 67.5378 19 67.4578 18.8V18.68C67.4978 18.3067 67.4911 17.9667 67.4378 17.66C67.4378 17.6467 67.4645 17.4133 67.5178 16.96C67.5845 16.88 67.5845 16.6667 67.5178 16.32C67.5711 16.0667 67.6178 15.8667 67.6578 15.72L67.6778 15.44C67.6778 15.36 67.7178 15.12 67.7978 14.72V14.52L67.8378 14.36C68.0778 13.3733 68.2378 12.6533 68.3178 12.2C68.2111 12.2267 68.1445 12.24 68.1178 12.24L67.4578 12.34C66.9511 12.4733 66.5045 12.36 66.1178 12C65.7845 11.5467 65.7778 11.16 66.0978 10.84C66.2978 10.6667 66.6045 10.5467 67.0178 10.48C67.3778 10.36 67.6111 10.2733 67.7178 10.22C67.8511 10.22 68.1645 10.0733 68.6578 9.78C69.1511 9.71333 69.4378 9.68 69.5178 9.68L70.4578 9.56C70.5778 9.54667 70.7378 9.56 70.9378 9.6C71.1378 9.62667 71.2578 9.66667 71.2978 9.72C71.4711 9.76 71.6845 9.84 71.9378 9.96L72.4178 10.4C72.6045 10.6667 72.7311 10.8667 72.7978 11ZM77.9155 22.02L77.4155 22.06C76.9888 22.1533 76.2421 21.98 75.1755 21.54C75.1221 21.54 75.0955 21.5467 75.0955 21.56C74.6288 21.3067 74.3288 21.1133 74.1955 20.98C73.6888 20.22 73.4288 19.6267 73.4155 19.2C73.4155 19.1333 73.5288 18.9733 73.7555 18.72C73.7688 18.68 73.8688 18.6133 74.0555 18.52C74.2555 18.4267 74.4355 18.3733 74.5955 18.36C74.8088 18.3867 74.9555 18.4533 75.0355 18.56L75.4555 19.12L75.6755 19.36L76.0355 19.66L76.3155 19.94L76.7155 20.26C76.7688 20.2867 76.8155 20.3067 76.8555 20.32C76.9088 20.32 77.0021 20.3333 77.1355 20.36C77.2821 20.3733 77.3888 20.3667 77.4555 20.34C77.5221 20.3133 77.6088 20.2867 77.7155 20.26C77.8221 20.22 77.9155 20.18 77.9955 20.14C78.1688 19.9667 78.2755 19.8667 78.3155 19.84L78.5755 19.52C78.6021 19.4933 78.6421 19.38 78.6955 19.18C78.6955 19.0067 78.6955 18.8933 78.6955 18.84C78.7088 18.7867 78.7088 18.74 78.6955 18.7C78.6821 18.6467 78.6688 18.5867 78.6555 18.52C78.6421 18.4533 78.6288 18.4 78.6155 18.36C78.6021 18.3067 78.5021 18.2 78.3155 18.04C78.2355 17.88 78.1221 17.7133 77.9755 17.54C77.9355 17.5 77.6088 17.3333 76.9955 17.04L76.3955 16.72L76.0355 16.42C75.8221 16.3533 75.6355 16.2467 75.4755 16.1C75.3288 15.9533 75.2421 15.8733 75.2155 15.86C75.0288 15.7933 74.7155 15.52 74.2755 15.04C74.2755 15.0267 74.1555 14.78 73.9155 14.3L73.6955 13.52L73.7755 13C73.6688 12.7333 73.6288 12.4733 73.6555 12.22C73.7088 12.14 73.7688 11.98 73.8355 11.74C73.8088 11.62 73.8555 11.4333 73.9755 11.18C74.1088 10.9133 74.1955 10.7533 74.2355 10.7C74.2755 10.6467 74.3088 10.5933 74.3355 10.54C74.3355 10.4467 74.6221 10.1133 75.1955 9.54L76.1755 9C76.8955 8.92 77.3555 8.88 77.5555 8.88C78.0221 8.92 78.3421 8.98667 78.5155 9.08C78.8088 9.26667 79.0355 9.42 79.1955 9.54C79.7821 10.0467 80.1155 10.5 80.1955 10.9C80.4755 11.6467 80.5155 12.3733 80.3155 13.08C80.3155 13.1467 80.1288 13.26 79.7555 13.42H79.2555C79.0421 13.42 78.8488 13.38 78.6755 13.3C78.5021 13.2067 78.2821 13.04 78.0155 12.8C77.9088 12.7467 77.8221 12.5667 77.7555 12.26C77.7421 11.94 77.6688 11.7467 77.5355 11.68C77.5221 11.6667 77.4688 11.5467 77.3755 11.32L77.1555 11.08C77.0621 10.96 76.9755 10.9 76.8955 10.9C76.8288 10.9 76.7488 10.9267 76.6555 10.98C76.4688 11.1267 76.3021 11.32 76.1555 11.56C76.0221 11.8 75.9488 12.0667 75.9355 12.36C75.9355 12.6533 75.9555 12.88 75.9955 13.04C76.0355 13.2 76.1421 13.4067 76.3155 13.66C76.4888 13.9 76.5955 14.02 76.6355 14.02C76.6755 14.0867 76.9355 14.34 77.4155 14.78L78.2755 15.38L78.6155 15.7L79.0155 15.94C79.2288 16.02 79.4421 16.14 79.6555 16.3C79.8688 16.4467 80.0021 16.5667 80.0555 16.66L80.3555 16.96L80.6555 17.38C80.7355 17.4733 80.8555 17.8267 81.0155 18.44L81.0555 19.22L80.9555 19.68C80.9155 19.72 80.8488 19.86 80.7555 20.1C80.7688 20.14 80.7021 20.32 80.5555 20.64C80.5155 20.72 80.3555 20.8733 80.0755 21.1C79.8088 21.3133 79.6488 21.4333 79.5955 21.46C79.5821 21.5 79.4488 21.5667 79.1955 21.66C79.1555 21.7 79.0355 21.7533 78.8355 21.82C78.6488 21.8733 78.4621 21.8933 78.2755 21.88L77.9155 22.02ZM87.6483 11.22C87.3016 11.02 86.6283 10.92 85.6283 10.92L85.7483 12.16C85.8549 12.88 85.9483 14.2267 86.0283 16.2C86.1483 16.1733 86.2283 16.14 86.2683 16.1C86.3749 16.02 86.4883 15.98 86.6083 15.98C86.7816 15.94 86.9483 15.82 87.1083 15.62C87.5083 15.2867 87.8149 15.0067 88.0283 14.78L88.6883 14.02C88.7283 14.0067 88.7949 13.86 88.8883 13.58C88.9816 13.2867 89.0416 13.0467 89.0683 12.86C89.0683 12.4733 89.0283 12.2533 88.9483 12.2C88.9483 12.1733 88.8683 12.0067 88.7083 11.7C88.6549 11.66 88.4949 11.56 88.2283 11.4L87.6483 11.22ZM83.5083 8.92L84.6283 8.76L86.0683 8.66L86.8283 8.76C86.8816 8.81333 87.0083 8.84667 87.2083 8.86C87.5949 8.84667 88.1149 9.06667 88.7683 9.52C88.9283 9.57333 89.0616 9.66667 89.1683 9.8L89.9283 10.72C89.9549 10.7467 89.9949 10.82 90.0483 10.94C90.1016 11.0467 90.1749 11.1733 90.2683 11.32C90.2416 11.32 90.2616 11.3733 90.3283 11.48C90.5016 11.7733 90.5816 11.9467 90.5683 12C90.6349 12.0533 90.7016 12.2267 90.7683 12.52C90.8349 12.8133 90.8549 13.0133 90.8283 13.12C90.8416 13.1333 90.8283 13.2867 90.7883 13.58C90.6949 14.22 90.5283 14.6933 90.2883 15L90.0283 15.48L89.5883 16.12L89.3283 16.36C88.8483 16.8933 88.2616 17.3067 87.5683 17.6C87.5416 17.6133 87.5016 17.6267 87.4483 17.64L86.9683 17.8L86.1883 18C86.1883 18.3867 86.2349 19.28 86.3283 20.68C86.3816 21.16 86.4216 21.4267 86.4483 21.48C86.4483 21.92 86.4216 22.2133 86.3683 22.36C86.3149 22.52 86.2283 22.6333 86.1083 22.7C85.9883 22.78 85.7816 22.8267 85.4883 22.84C85.4083 22.8667 85.2683 22.84 85.0683 22.76C84.8683 22.6933 84.7083 22.5867 84.5883 22.44L84.4683 21.8C84.4949 21.7733 84.4549 21.6467 84.3483 21.42C84.2549 21.3133 84.1816 21.1267 84.1283 20.86L83.9883 18.96L83.9683 18.32C83.1949 18.3733 82.7283 18.16 82.5683 17.68C82.4349 17.4267 82.4083 17.26 82.4883 17.18L82.5883 16.92C82.7483 16.6667 83.0549 16.54 83.5083 16.54H83.9283C83.9016 16.5133 83.8883 16.42 83.8883 16.26L83.8083 15.42V15.06L83.7883 14.8C83.8016 14.68 83.7949 14.5467 83.7683 14.4V14.28L83.7283 13.78V13.4L83.7083 13.2C83.7083 12.2533 83.6549 11.6533 83.5483 11.4C83.1083 11.6533 82.8149 11.7933 82.6683 11.82C82.5216 11.8333 82.2749 11.7333 81.9283 11.52C81.7816 11.4 81.7016 11.2667 81.6883 11.12C81.4483 10.7867 81.3683 10.5133 81.4483 10.3C81.4749 10.1933 81.5816 10.0267 81.7683 9.8C81.7816 9.74667 81.9416 9.62667 82.2483 9.44C82.4883 9.2 82.9083 9.02667 83.5083 8.92ZM95.4647 9.62L95.8247 9.46C95.8647 9.46 95.9247 9.44 96.0047 9.4C96.298 9.26667 96.678 9.16667 97.1447 9.1C97.2247 8.99333 97.378 9.02667 97.6047 9.2C97.7114 9.25333 97.778 9.28 97.8047 9.28C97.8447 9.28 97.9047 9.33333 97.9847 9.44C98.078 9.53333 98.138 9.61333 98.1647 9.68L98.3847 9.86C98.5447 9.95333 98.638 10.0333 98.6647 10.1C98.6914 10.1533 98.6914 10.26 98.6647 10.42C98.6514 10.5667 98.5914 10.7067 98.4847 10.84C98.3914 10.96 98.2914 11.04 98.1847 11.08C97.7314 11.2533 97.4247 11.34 97.2647 11.34C97.1047 11.34 96.9114 11.4067 96.6847 11.54C96.458 11.6733 96.2714 11.7533 96.1247 11.78C95.978 11.8067 95.8647 11.84 95.7847 11.88C95.718 11.92 95.618 11.9867 95.4847 12.08C95.1647 12.2667 94.8514 12.3867 94.5447 12.44C94.5714 12.44 94.558 12.5067 94.5047 12.64C94.4514 12.7733 94.4047 12.9533 94.3647 13.18C94.3247 13.3933 94.2514 13.6467 94.1447 13.94L93.9047 15.02C93.8514 15.26 93.8447 15.38 93.8847 15.38C93.9247 15.38 93.958 15.3533 93.9847 15.3C94.718 15.0067 95.1514 14.7867 95.2847 14.64C95.4314 14.48 95.6447 14.4133 95.9247 14.44L96.1647 14.38C96.2047 14.34 96.2914 14.32 96.4247 14.32C96.6647 14.2533 96.978 14.4133 97.3647 14.8L97.3047 15.02C97.238 15.1533 97.1314 15.3 96.9847 15.46C96.838 15.62 96.718 15.72 96.6247 15.76C96.5447 15.8 96.4847 15.8333 96.4447 15.86C96.4047 15.8733 96.378 15.88 96.3647 15.88H96.3247C96.2447 15.96 96.158 16.0267 96.0647 16.08C95.958 16.1867 95.8514 16.2667 95.7447 16.32C95.638 16.3733 95.538 16.4333 95.4447 16.5C95.3514 16.5533 95.278 16.5933 95.2247 16.62C95.1847 16.6467 95.1314 16.68 95.0647 16.72C94.998 16.76 94.918 16.8067 94.8247 16.86C94.7447 16.9133 94.6914 16.94 94.6647 16.94C94.638 16.94 94.4914 17.06 94.2247 17.3C94.1447 17.3 94.0314 17.2667 93.8847 17.2C93.738 17.12 93.6314 17.04 93.5647 16.96C93.4847 16.96 93.4714 17.14 93.5247 17.5C93.5247 17.5667 93.498 17.7333 93.4447 18C93.3914 18.4933 93.3847 18.9867 93.4247 19.48C93.4647 19.9733 93.5247 20.2733 93.6047 20.38C93.6847 20.4867 93.7714 20.54 93.8647 20.54C94.0647 20.5 94.218 20.4467 94.3247 20.38C94.4314 20.3 94.5314 20.2533 94.6247 20.24C94.718 20.2267 94.818 20.1733 94.9247 20.08C95.0447 19.9867 95.1314 19.94 95.1847 19.94C95.2514 19.94 95.4447 19.78 95.7647 19.46C95.8047 19.3933 95.8914 19.3267 96.0247 19.26C96.1714 19.18 96.2447 19.12 96.2447 19.08C96.2714 19.0267 96.3647 18.9533 96.5247 18.86C96.698 18.7533 96.898 18.6867 97.1247 18.66C97.3647 18.62 97.5447 18.6333 97.6647 18.7C97.878 18.82 98.138 19.0333 98.4447 19.34C98.5114 19.4467 98.5047 19.68 98.4247 20.04C98.358 20.3867 98.2447 20.64 98.0847 20.8L97.9047 20.98C97.678 21.2467 97.3447 21.5267 96.9047 21.82C96.558 22.0067 96.378 22.1 96.3647 22.1C96.2847 22.1667 96.238 22.2067 96.2247 22.22C96.158 22.34 96.098 22.3867 96.0447 22.36C96.0047 22.3333 95.8847 22.3333 95.6847 22.36C95.498 22.3867 95.3314 22.3867 95.1847 22.36C95.1047 22.32 95.0047 22.3 94.8847 22.3C94.7647 22.3667 94.318 22.14 93.5447 21.62C93.438 21.54 93.3647 21.5 93.3247 21.5C93.2847 21.5 93.198 21.4867 93.0647 21.46C92.958 21.4067 92.8314 21.3467 92.6847 21.28C92.2447 21.0267 91.9847 20.8533 91.9047 20.76C91.8247 20.6667 91.7314 20.5867 91.6247 20.52C91.518 20.4533 91.458 20.38 91.4447 20.3C91.4314 20.22 91.3914 20.1333 91.3247 20.04C91.3247 20.0133 91.2847 19.8933 91.2047 19.68C91.098 19.5067 91.0647 19.38 91.1047 19.3C91.118 19.22 91.1114 19.16 91.0847 19.12C91.058 19.0667 91.0314 18.68 91.0047 17.96C90.978 17.2267 90.9914 16.8267 91.0447 16.76C91.098 16.6933 91.1247 16.5333 91.1247 16.28C91.098 16.04 91.1314 15.86 91.2247 15.74C91.3314 15.62 91.378 15.4667 91.3647 15.28C91.3514 15.08 91.3714 14.9267 91.4247 14.82C91.478 14.7667 91.5247 14.56 91.5647 14.2L91.6447 13.84C91.8047 13.52 91.8847 13.3067 91.8847 13.2C91.8847 13.08 91.9114 12.94 91.9647 12.78C91.978 12.7533 92.058 12.5267 92.2047 12.1L92.3447 11.82L92.4047 11.58C92.738 10.9 92.9447 10.5067 93.0247 10.4C93.0247 10.3467 93.1114 10.1 93.2847 9.66C93.2714 9.46 93.378 9.32 93.6047 9.24C93.8314 9.14667 94.038 9.15333 94.2247 9.26C94.4247 9.36667 94.5447 9.44 94.5847 9.48C94.6247 9.52 94.7047 9.57333 94.8247 9.64C94.8647 9.70667 95.078 9.7 95.4647 9.62ZM103.232 13.34C103.139 13.7933 103.092 14.1867 103.092 14.52C103.065 14.7067 103.032 14.8333 102.992 14.9C102.965 14.9667 102.952 15.12 102.952 15.36C102.952 15.6 103.025 15.74 103.172 15.78C103.319 15.78 103.532 15.7 103.812 15.54L104.232 15.16C104.379 15.04 104.719 14.82 105.252 14.5L105.752 14.02L105.952 13.76L106.032 13.58C106.139 13.4067 106.172 13.2267 106.132 13.04L106.092 12.7C105.999 12.2867 105.932 12.0467 105.892 11.98C105.865 11.9 105.819 11.82 105.752 11.74C105.685 11.6467 105.612 11.5667 105.532 11.5C105.452 11.4333 105.405 11.3867 105.392 11.36L104.772 11.06C104.759 11.0467 104.679 11.0267 104.532 11C104.305 10.9067 103.985 10.8933 103.572 10.96L103.452 11.6C103.452 11.68 103.412 11.82 103.332 12.02C103.265 12.22 103.252 12.3667 103.292 12.46C103.279 12.5 103.272 12.58 103.272 12.7C103.272 12.8067 103.259 12.9533 103.232 13.14V13.34ZM102.852 17.22C102.745 17.2733 102.679 17.3 102.652 17.3C102.639 17.34 102.632 17.4133 102.632 17.52V17.76C102.632 17.8533 102.572 18.14 102.452 18.62V18.82C102.452 19.02 102.419 19.18 102.352 19.3L102.272 20.18L102.152 20.68C102.125 20.76 102.119 20.8333 102.132 20.9C102.159 20.9667 102.179 21.2133 102.192 21.64C102.219 22.0533 102.205 22.3533 102.152 22.54L102.032 22.72C101.765 22.8 101.592 22.82 101.512 22.78C101.432 22.74 101.299 22.7133 101.112 22.7C100.925 22.6867 100.819 22.6733 100.792 22.66C100.779 22.66 100.712 22.6333 100.592 22.58C100.485 22.54 100.412 22.5067 100.372 22.48C100.345 22.4533 100.299 22.4133 100.232 22.36C100.059 22.24 99.972 21.98 99.972 21.58C99.9454 21.5 99.952 21.4067 99.992 21.3C99.912 21.26 99.8854 21.1533 99.912 20.98C99.952 20.9 99.972 20.7733 99.972 20.6C99.972 20.4267 99.992 20.2867 100.032 20.18V19.86C100.032 19.74 100.079 19.4933 100.172 19.12C100.172 19.0133 100.192 18.92 100.232 18.84C100.205 18.8133 100.239 18.7 100.332 18.5C100.305 18.46 100.339 18.2667 100.432 17.92C100.392 17.88 100.385 17.76 100.412 17.56C100.439 17.3467 100.472 17.18 100.512 17.06C100.512 16.8067 100.532 16.6533 100.572 16.6C100.559 16.56 100.539 16.4333 100.512 16.22L100.552 15.98C100.552 15.82 100.612 15.5733 100.732 15.24C100.839 14.48 100.892 14.0667 100.892 14C101.079 13.2267 101.172 12.7467 101.172 12.56C101.212 12.5467 101.252 12.42 101.292 12.18C101.332 11.9267 101.319 11.7467 101.252 11.64C100.652 11.8667 100.152 12.1333 99.752 12.44C99.4854 12.6667 99.3054 12.7533 99.212 12.7C99.0254 12.5933 98.932 12.44 98.932 12.24L98.852 11.92C98.8387 11.9067 98.8054 11.8333 98.752 11.7C98.6854 11.5533 98.6587 11.4467 98.672 11.38C98.672 11.3133 98.6654 11.2267 98.652 11.12C98.6254 11 98.6254 10.92 98.652 10.88C98.772 10.6533 98.932 10.4867 99.132 10.38L99.612 10.04L99.952 9.84C99.9787 9.84 100.232 9.7 100.712 9.42C100.739 9.36667 100.839 9.32 101.012 9.28C101.185 9.24 101.572 9.12 102.172 8.92C102.572 8.88 102.805 8.86 102.872 8.86C103.299 8.80667 103.659 8.84667 103.952 8.98C104.152 9.03333 104.265 9.06 104.292 9.06C104.332 9.04667 104.379 9.04667 104.432 9.06C104.499 9.07333 104.545 9.08 104.572 9.08C104.572 9.10667 104.632 9.12 104.752 9.12L105.132 9.26C105.199 9.26 105.285 9.29333 105.392 9.36C105.472 9.34667 105.579 9.38 105.712 9.46C105.859 9.52667 106.065 9.62667 106.332 9.76C106.612 9.89333 106.752 10.0067 106.752 10.1C106.832 10.1267 106.919 10.2 107.012 10.32L107.252 10.56L107.632 11.06C107.659 11.0733 107.719 11.14 107.812 11.26C107.945 11.4867 108.019 11.62 108.032 11.66C108.045 11.7 108.059 11.74 108.072 11.78C108.085 11.8067 108.139 11.92 108.232 12.12C108.419 12.4933 108.492 12.82 108.452 13.1C108.452 13.1133 108.385 13.32 108.252 13.72C108.012 14.4267 107.645 14.9867 107.152 15.4C107.045 15.48 106.905 15.5867 106.732 15.72C106.559 15.84 106.419 15.9467 106.312 16.04C105.805 16.3467 105.505 16.54 105.412 16.62C105.332 16.7 105.259 16.7667 105.192 16.82L104.972 16.92L105.012 17.04C105.012 16.9867 105.045 17.0133 105.112 17.12C105.192 17.2133 105.245 17.2867 105.272 17.34C105.272 17.4067 105.339 17.4867 105.472 17.58C105.499 17.5667 105.532 17.58 105.572 17.62C105.652 17.7 105.692 17.8267 105.692 18C105.785 18.0533 105.925 18.2133 106.112 18.48C106.299 18.6133 106.459 18.8 106.592 19.04C106.685 19.1467 106.759 19.22 106.812 19.26C106.865 19.34 106.972 19.4467 107.132 19.58C107.292 19.7133 107.399 19.8067 107.452 19.86C107.505 19.9 107.565 19.9467 107.632 20C107.872 20.1867 108.039 20.3267 108.132 20.42L108.372 20.58C108.865 21.06 109.125 21.32 109.152 21.36C109.139 21.4533 109.045 21.5933 108.872 21.78C108.859 21.9933 108.552 22.1733 107.952 22.32C107.752 22.32 107.479 22.2267 107.132 22.04C106.785 21.8667 106.519 21.68 106.332 21.48C105.745 21.0533 105.359 20.72 105.172 20.48C104.625 19.9333 104.232 19.4067 103.992 18.9C103.939 18.86 103.872 18.7933 103.792 18.7C103.725 18.6067 103.659 18.5333 103.592 18.48L103.332 17.98C103.092 17.6467 102.972 17.48 102.972 17.48L102.852 17.22ZM113.755 22.02L113.255 22.06C112.829 22.1533 112.082 21.98 111.015 21.54C110.962 21.54 110.935 21.5467 110.935 21.56C110.469 21.3067 110.169 21.1133 110.035 20.98C109.529 20.22 109.269 19.6267 109.255 19.2C109.255 19.1333 109.369 18.9733 109.595 18.72C109.609 18.68 109.709 18.6133 109.895 18.52C110.095 18.4267 110.275 18.3733 110.435 18.36C110.649 18.3867 110.795 18.4533 110.875 18.56L111.295 19.12L111.515 19.36L111.875 19.66L112.155 19.94L112.555 20.26C112.609 20.2867 112.655 20.3067 112.695 20.32C112.749 20.32 112.842 20.3333 112.975 20.36C113.122 20.3733 113.229 20.3667 113.295 20.34C113.362 20.3133 113.449 20.2867 113.555 20.26C113.662 20.22 113.755 20.18 113.835 20.14C114.009 19.9667 114.115 19.8667 114.155 19.84L114.415 19.52C114.442 19.4933 114.482 19.38 114.535 19.18C114.535 19.0067 114.535 18.8933 114.535 18.84C114.549 18.7867 114.549 18.74 114.535 18.7C114.522 18.6467 114.509 18.5867 114.495 18.52C114.482 18.4533 114.469 18.4 114.455 18.36C114.442 18.3067 114.342 18.2 114.155 18.04C114.075 17.88 113.962 17.7133 113.815 17.54C113.775 17.5 113.449 17.3333 112.835 17.04L112.235 16.72L111.875 16.42C111.662 16.3533 111.475 16.2467 111.315 16.1C111.169 15.9533 111.082 15.8733 111.055 15.86C110.869 15.7933 110.555 15.52 110.115 15.04C110.115 15.0267 109.995 14.78 109.755 14.3L109.535 13.52L109.615 13C109.509 12.7333 109.469 12.4733 109.495 12.22C109.549 12.14 109.609 11.98 109.675 11.74C109.649 11.62 109.695 11.4333 109.815 11.18C109.949 10.9133 110.035 10.7533 110.075 10.7C110.115 10.6467 110.149 10.5933 110.175 10.54C110.175 10.4467 110.462 10.1133 111.035 9.54L112.015 9C112.735 8.92 113.195 8.88 113.395 8.88C113.862 8.92 114.182 8.98667 114.355 9.08C114.649 9.26667 114.875 9.42 115.035 9.54C115.622 10.0467 115.955 10.5 116.035 10.9C116.315 11.6467 116.355 12.3733 116.155 13.08C116.155 13.1467 115.969 13.26 115.595 13.42H115.095C114.882 13.42 114.689 13.38 114.515 13.3C114.342 13.2067 114.122 13.04 113.855 12.8C113.749 12.7467 113.662 12.5667 113.595 12.26C113.582 11.94 113.509 11.7467 113.375 11.68C113.362 11.6667 113.309 11.5467 113.215 11.32L112.995 11.08C112.902 10.96 112.815 10.9 112.735 10.9C112.669 10.9 112.589 10.9267 112.495 10.98C112.309 11.1267 112.142 11.32 111.995 11.56C111.862 11.8 111.789 12.0667 111.775 12.36C111.775 12.6533 111.795 12.88 111.835 13.04C111.875 13.2 111.982 13.4067 112.155 13.66C112.329 13.9 112.435 14.02 112.475 14.02C112.515 14.0867 112.775 14.34 113.255 14.78L114.115 15.38L114.455 15.7L114.855 15.94C115.069 16.02 115.282 16.14 115.495 16.3C115.709 16.4467 115.842 16.5667 115.895 16.66L116.195 16.96L116.495 17.38C116.575 17.4733 116.695 17.8267 116.855 18.44L116.895 19.22L116.795 19.68C116.755 19.72 116.689 19.86 116.595 20.1C116.609 20.14 116.542 20.32 116.395 20.64C116.355 20.72 116.195 20.8733 115.915 21.1C115.649 21.3133 115.489 21.4333 115.435 21.46C115.422 21.5 115.289 21.5667 115.035 21.66C114.995 21.7 114.875 21.7533 114.675 21.82C114.489 21.8733 114.302 21.8933 114.115 21.88L113.755 22.02Z" fill="white"/>
<defs>
<linearGradient id="paint0_linear_750_473" x1="-18.6164" y1="9.96834" x2="50.9757" y2="17.6177" gradientUnits="userSpaceOnUse">
<stop offset="0.2391" stop-color="#B5AFFF"/>
<stop offset="0.799" stop-color="#5D5FEF"/>
</linearGradient>
<clipPath id="clip0_750_473">
<rect width="37" height="18" fill="white" transform="translate(0 7)"/>
</clipPath>
</defs>
</svg>
