<svg width="1000" height="304" viewBox="0 0 1000 304" fill="none" xmlns="http://www.w3.org/2000/svg">
<g clip-path="url(#clip0_750_465)">
<path d="M383.003 174.052C383.003 173.937 383.003 173.937 383.003 174.052V173.822V173.707C383.003 173.591 383.003 173.476 383.003 173.361C383.003 173.246 383.003 173.131 383.003 173.016C383.003 172.901 383.003 172.901 383.003 172.786V172.671V172.555C383.003 171.98 382.657 171.289 382.081 171.059C364.334 163.808 351.888 168.642 339.788 173.246C327.804 177.965 316.395 182.339 299.686 175.433C282.976 168.642 278.021 157.477 272.835 145.737C267.534 133.996 262.118 121.795 244.371 114.429C226.625 107.177 214.179 112.011 202.079 116.616C190.094 121.335 178.686 125.709 161.976 118.803C145.266 112.011 140.311 100.847 135.126 89.1061C129.825 77.2505 124.293 65.0496 106.546 57.683C88.7998 50.4316 76.3541 55.2659 64.2541 59.9851C54.4589 63.7835 45.1246 67.4668 32.9093 64.9345C32.1027 64.7043 31.296 65.2798 31.1808 66.0855C31.0655 66.8913 31.5265 67.697 32.3332 67.8121C45.3551 70.4594 55.6113 66.546 65.4065 62.7476C77.3912 58.0284 88.7998 53.6545 105.509 60.5606C122.219 67.3517 127.174 78.5166 132.36 90.2571C137.661 101.998 143.077 114.198 160.824 121.565C178.57 128.816 191.016 123.982 203.116 119.378C215.101 114.659 226.509 110.285 243.219 117.191C256.817 122.716 262.579 131.119 267.188 140.442C262.348 132.615 255.665 125.363 243.104 120.874C225.126 114.429 213.026 119.723 201.272 124.903C189.518 130.083 178.455 134.917 161.63 128.816C144.806 122.716 139.389 111.896 133.743 100.501C127.981 88.991 122.104 77.1354 104.126 70.6896C86.1493 64.2439 74.0493 69.5386 62.2951 74.7182C52.8455 78.8619 43.857 82.7754 31.8722 81.0489C31.0655 80.9338 30.2589 81.5093 30.1436 82.315C30.0284 83.1207 30.6046 83.9265 31.4112 84.0416C44.3179 85.9983 54.1132 81.7395 63.5627 77.5958C75.317 72.4162 86.3798 67.5819 103.205 73.6823C120.029 79.7828 125.446 90.6024 131.092 101.998C136.854 113.508 142.731 125.363 160.708 131.809C178.686 138.255 190.786 132.96 202.54 127.781C214.294 122.601 225.357 117.767 242.182 123.867C256.702 129.162 262.694 137.91 267.765 147.578C262.464 139.406 255.549 131.809 241.951 127.55C223.859 121.91 211.989 127.665 200.581 133.305C189.172 138.946 178.34 144.24 161.4 138.946C144.46 133.651 138.583 123.061 132.475 112.011C126.022 100.501 119.568 88.8759 101.476 83.2358C83.3836 77.5958 71.5141 83.3509 60.1055 88.991C51.4627 93.2498 43.396 97.1633 32.6789 96.7028C31.8722 96.7028 31.1808 97.2784 31.0655 98.0841C31.0655 98.8898 31.6417 99.5804 32.4484 99.6955C43.9722 100.156 52.8455 95.8971 61.3732 91.6383C72.7817 85.9983 83.6141 80.7036 100.554 85.9983C117.494 91.4081 123.371 101.998 129.479 113.047C135.702 124.212 142.04 135.723 160.247 141.478C178.34 147.118 190.209 141.363 201.618 135.723C213.026 130.083 223.859 124.788 240.799 130.083C256.471 135.032 262.579 144.355 268.341 154.484C262.579 145.737 255.204 137.679 240.453 133.651C222.13 128.816 210.606 135.032 199.428 141.132C188.25 147.233 177.764 152.988 160.708 148.384C143.653 143.78 137.315 133.651 130.746 122.831C124.063 112.011 117.264 100.847 98.9408 95.8971C80.6179 91.0628 69.0941 97.2784 57.916 103.379C48.8122 108.443 40.2846 113.163 28.0693 112.357C27.2627 112.357 26.5712 112.932 26.456 113.738C26.3408 114.544 27.0322 115.234 27.8389 115.349C40.8608 116.27 50.1951 111.206 59.2989 106.256C70.477 100.156 81.0789 94.4008 98.1341 98.8898C115.189 103.494 121.527 113.623 128.096 124.443C134.78 135.262 141.579 146.427 159.902 151.377C178.109 156.211 189.748 149.995 200.926 143.895C212.105 137.794 222.591 132.039 239.646 136.643C256.702 141.248 263.04 151.377 269.608 162.196C263.155 152.873 255.549 143.895 239.07 140.212C220.632 136.183 209.454 142.974 198.506 149.535C187.674 156.096 177.418 162.311 160.132 158.513C142.846 154.715 136.163 144.816 129.133 134.341C121.988 123.867 114.728 112.932 96.2903 108.904C77.8522 104.875 66.6741 111.666 55.7265 118.227C47.1989 123.292 39.2474 128.126 27.8389 128.356C27.0322 128.356 26.3408 129.047 26.3408 129.852C26.5712 130.543 27.1474 131.119 28.0693 131.119C40.2846 131.003 48.9274 125.709 57.4551 120.644C68.2874 114.083 78.5436 107.868 95.7141 111.666C113 115.465 119.684 125.363 126.713 135.838C133.858 146.312 141.118 157.247 159.556 161.275C177.994 165.304 189.172 158.513 200.12 151.952C210.952 145.391 221.208 139.176 238.379 142.974C255.665 146.772 262.348 156.671 269.378 167.146C270.069 168.182 270.876 169.333 271.567 170.369C264.077 160.239 256.241 149.765 237.687 146.542C219.134 143.319 208.186 150.571 197.585 157.592C187.098 164.613 177.072 171.174 159.671 168.182C142.27 165.189 135.126 155.52 127.635 145.391C120.029 135.147 112.308 124.673 93.6398 121.45C75.0865 118.227 64.1389 125.478 53.537 132.5C45.3551 137.91 37.6341 143.089 26.3408 143.78C25.5341 143.78 24.8427 144.586 24.9579 145.391C24.9579 146.197 25.7646 146.888 26.5712 146.772C38.556 146.082 47.0836 140.442 55.1503 135.032C65.637 128.011 75.6627 121.45 93.0636 124.443C110.465 127.435 117.609 137.104 125.1 147.233C132.706 157.477 140.426 167.951 159.095 171.174C177.648 174.397 188.596 167.146 199.198 160.124C209.685 153.103 219.71 146.542 237.111 149.535C254.512 152.528 261.657 162.196 269.147 172.325C276.753 182.569 284.474 193.044 303.143 196.267C306.254 196.842 309.25 197.072 311.901 197.072C315.358 197.072 318.585 196.612 321.466 195.921C316.626 197.303 311.094 197.763 304.41 196.842C286.894 194.54 279.288 185.217 271.337 175.433C263.386 165.534 255.088 155.405 236.305 152.873C217.521 150.456 206.919 158.168 196.663 165.649C186.406 173.131 176.726 180.152 159.21 177.965C141.694 175.663 134.088 166.34 126.137 156.556C118.186 146.657 109.888 136.528 91.1046 133.996C72.3208 131.579 61.7189 139.291 51.4627 146.772C43.6265 152.528 36.2512 157.937 25.3036 159.204C24.497 159.319 23.9208 160.009 24.036 160.93C24.1512 161.736 24.8427 162.311 25.7646 162.196C37.5189 161.16 45.5855 155.29 53.4217 149.535C63.6779 142.053 73.3579 135.032 90.8741 137.219C108.39 139.521 115.996 148.844 123.947 158.628C131.899 168.527 140.196 178.656 158.98 181.188C177.764 183.605 188.366 175.893 198.622 168.412C208.878 160.93 218.558 153.909 236.074 156.096C253.59 158.398 261.196 167.721 269.147 177.505C277.099 187.404 285.396 197.533 304.18 200.065C306.6 200.41 308.789 200.525 310.979 200.525C315.243 200.525 319.161 199.95 322.618 198.914C317.778 200.525 312.131 201.331 305.332 200.641C287.586 199.144 279.634 190.166 271.222 180.613C262.809 171.059 254.051 161.16 235.152 159.549C216.253 157.937 205.997 166.11 195.971 174.167C186.061 182.109 176.611 189.591 158.98 188.094C141.233 186.598 133.282 177.62 124.869 168.066C116.342 158.628 107.584 148.729 88.6846 147.118C69.7855 145.506 59.4141 153.679 49.5036 161.736C42.0132 167.721 34.9836 173.361 24.2665 175.203C23.4598 175.318 22.8836 176.124 22.9989 176.929C23.1141 177.735 23.9208 178.311 24.7274 178.196C36.136 176.239 43.857 170.023 51.2322 164.038C61.1427 156.096 70.5922 148.614 88.2236 150.11C105.97 151.607 113.922 160.585 122.334 170.138C130.746 179.692 139.505 189.591 158.404 191.202C177.303 192.814 187.674 184.641 197.585 176.584C207.495 168.642 216.945 161.16 234.576 162.657C252.323 164.153 260.274 173.131 268.686 182.685C277.099 192.238 285.857 202.137 304.756 203.748C306.369 203.863 307.983 203.978 309.481 203.978C314.551 203.978 318.93 203.173 322.964 201.907C318.239 203.633 312.707 204.669 305.908 204.324C288.046 203.518 279.634 194.885 270.761 185.677C261.887 176.469 252.668 166.915 233.539 166.11C214.409 165.304 204.499 174.052 194.819 182.454C185.139 190.857 176.035 198.799 158.173 198.108C140.311 197.303 131.899 188.67 123.026 179.462C114.498 170.253 105.279 160.7 86.1493 159.894C67.1351 159.088 57.1093 167.836 47.4293 176.239C40.1693 182.569 33.3703 188.555 22.7684 190.857C21.9617 191.087 21.3855 191.893 21.616 192.698C21.8465 193.504 22.6532 193.965 23.4598 193.849C34.7532 191.317 42.2436 184.871 49.5036 178.541C59.1836 170.138 68.2874 162.196 86.1493 162.887C104.011 163.693 112.424 172.325 121.297 181.533C130.17 190.742 139.389 200.295 158.519 201.101C177.648 201.907 187.559 193.159 197.239 184.756C206.919 176.354 216.023 168.412 233.885 169.102C251.746 169.908 260.159 178.541 269.032 187.749C277.906 196.957 287.125 206.511 306.254 207.316C307.061 207.316 307.867 207.316 308.674 207.316C314.782 207.316 319.967 206.281 324.462 204.554C319.737 206.626 314.09 207.892 307.176 207.892C289.199 207.892 280.326 199.489 270.991 190.627C261.657 181.764 251.977 172.555 232.732 172.555C213.487 172.555 203.807 181.764 194.473 190.627C185.139 199.489 176.266 207.892 158.288 207.892C140.311 207.892 131.438 199.489 122.104 190.627C112.769 181.764 103.089 172.555 83.8446 172.555C64.5998 172.555 54.9198 181.764 45.5855 190.627C38.556 197.303 31.8722 203.633 21.3855 206.396C20.5789 206.626 20.1179 207.432 20.3484 208.237C20.5789 209.043 21.3855 209.503 22.1922 209.273C33.4855 206.281 40.7455 199.374 47.6598 192.698C56.9941 183.836 65.8674 175.433 83.8446 175.433C101.822 175.433 110.695 183.836 120.029 192.698C129.364 201.561 139.044 210.77 158.288 210.77C177.533 210.77 187.213 201.561 196.547 192.698C205.882 183.836 214.755 175.433 232.732 175.433C250.709 175.433 259.583 183.836 268.917 192.698C278.251 201.561 287.931 210.77 307.176 210.77C326.421 210.77 336.101 201.561 345.435 192.698C354.769 183.836 363.643 175.433 381.62 175.433C382.311 175.663 383.003 174.973 383.003 174.052Z" fill="url(#paint0_linear_750_465)"/>
</g>
<path d="M497.88 113.86C498.253 116.1 498.16 118.947 497.6 122.4C497.6 123.427 497.507 124.453 497.32 125.48C496.667 128.28 496.34 130.147 496.34 131.08C496.34 132.387 496.06 135.187 495.5 139.48C495.313 142.653 495.22 147.553 495.22 154.18C495.22 160.807 495.593 166.5 496.34 171.26C497.087 176.02 497.787 178.493 498.44 178.68C499.187 178.773 499.887 178.213 500.54 177C500.447 176.533 500.727 175.32 501.38 173.36C502.22 168.413 503.153 164.027 504.18 160.2C505.207 156.373 505.767 153.9 505.86 152.78C505.953 152.127 506.233 150.353 506.7 147.46C507.54 144.473 508.053 141.347 508.24 138.08V136.96C508.613 131.92 508.8 128.373 508.8 126.32C508.8 124.267 508.753 122.54 508.66 121.14L508.8 115.96C508.893 114.747 509.313 113.72 510.06 112.88C510.153 112.88 510.48 112.74 511.04 112.46C511.693 112.18 512.3 111.947 512.86 111.76C513.513 111.48 514.54 111.527 515.94 111.9C517.34 112.18 518.273 112.507 518.74 112.88C519.207 113.16 519.58 113.533 519.86 114C520.14 114.467 520.373 114.887 520.56 115.26C520.747 115.54 520.933 116.053 521.12 116.8C521.4 118.387 521.68 121.467 521.96 126.04C522.24 130.613 522.333 133.6 522.24 135C522.147 136.4 522.1 138.127 522.1 140.18L521.96 142.14C521.96 143.353 521.727 146.713 521.26 152.22C520.793 157.633 520.373 160.993 520 162.3C519.813 163.98 519.72 165.007 519.72 165.38L519.3 167.76C519.3 168.04 519.253 168.32 519.16 168.6C519.067 168.88 518.787 170 518.32 171.96C517.853 173.827 517.573 174.853 517.48 175.04L516.78 178.12C514.913 182.413 513.747 184.84 513.28 185.4C513.28 185.867 512.347 187.127 510.48 189.18L508.24 192.12L507.12 192.96C503.48 196.6 499.42 196.88 494.94 193.8L491.44 191.28C490.88 190.44 490.133 189.6 489.2 188.76C489.107 188.48 488.687 187.967 487.94 187.22C487.193 186.38 486.54 185.54 485.98 184.7C485.42 183.767 485.14 183.16 485.14 182.88C485.14 182.507 484.72 181.433 483.88 179.66C483.32 178.913 482.807 177.887 482.34 176.58C482.153 176.393 481.78 175.367 481.22 173.5C480.847 172.847 480.567 171.633 480.38 169.86L478.7 176.3C478.7 177.047 478.373 178.167 477.72 179.66L476.88 182.46C473.147 191.42 471 196.32 470.44 197.16C468.76 199.213 467.36 200.52 466.24 201.08C465.12 201.733 463.44 201.92 461.2 201.64C459.427 201.547 456.533 200.893 452.52 199.68L450.28 197.3C449.347 196.367 448.787 195.247 448.6 193.94C447.667 191.793 447.013 190.3 446.64 189.46C446.36 188.62 446.033 187.033 445.66 184.7V181.2C445.473 180.92 445.333 179.007 445.24 175.46C445.053 173.967 444.96 173.08 444.96 172.8L445.1 171.82C444.54 171.26 444.167 168.693 443.98 164.12L443.84 163.14C443.84 162.86 443.793 162.393 443.7 161.74C443.607 161.087 443.42 159.5 443.14 156.98L442.72 149.7C442.907 148.767 442.907 147.553 442.72 146.06V143.4C442.72 138.08 443.093 134.3 443.84 132.06L444.4 129.26C444.4 128.887 444.493 128.373 444.68 127.72C444.96 126.507 445.287 125.293 445.66 124.08C446.033 122.773 446.313 121.373 446.5 119.88C446.687 118.293 447.013 117.173 447.48 116.52C447.947 115.773 448.693 114.887 449.72 113.86C450.747 112.833 451.633 112.18 452.38 111.9C454.06 111.62 455.133 111.48 455.6 111.48C456.627 111.107 458.353 111.2 460.78 111.76C461.527 111.76 462.647 112.133 464.14 112.88C465.073 113.533 465.587 114.467 465.68 115.68C465.867 116.987 465.727 119.227 465.26 122.4C464.793 125.48 464.42 127.16 464.14 127.44C464.607 127.907 464.653 129.073 464.28 130.94C464.28 133.273 464.14 135.7 463.86 138.22C463.673 140.647 463.58 142.187 463.58 142.84V144.52C463.487 145.36 463.44 146.433 463.44 147.74C463.16 149.233 463.02 151.567 463.02 154.74C462.833 156.887 462.787 158.287 462.88 158.94L462.6 161.74V163.7C462.6 164.82 462.647 165.613 462.74 166.08C462.553 168.227 462.507 171.027 462.6 174.48C462.787 177.933 463.067 179.66 463.44 179.66L468.06 171.82C468.433 170.98 469.133 168.787 470.16 165.24L475.2 155.72C476.227 152.733 476.833 151.053 477.02 150.68L478 148.3C478.467 148.113 478.793 147.507 478.98 146.48C479.26 145.453 479.587 144.193 479.96 142.7C480.427 141.207 480.707 139.06 480.8 136.26C480.893 133.367 481.313 131.173 482.06 129.68C482.06 127.72 482.573 124.313 483.6 119.46C483.787 117.967 483.88 116.847 483.88 116.1C484.813 113.58 485.793 111.853 486.82 110.92C487.847 109.893 489.76 109.707 492.56 110.36C495.453 110.92 497.227 112.087 497.88 113.86ZM537.802 176.86C537.989 176.58 538.035 175.88 537.942 174.76C537.382 171.213 537.289 168.833 537.662 167.62C537.289 162.487 537.149 159.453 537.242 158.52C537.429 157.587 537.709 157.073 538.082 156.98C537.709 156.42 537.335 154.32 536.962 150.68C536.682 146.947 536.635 144.473 536.822 143.26C536.355 141.207 536.449 139.527 537.102 138.22C536.915 138.033 536.775 137.287 536.682 135.98V129.4C536.869 126.973 536.962 125.713 536.962 125.62V122.54L537.802 118.06C537.522 117.5 537.755 116.613 538.502 115.4C537.475 113.347 538.455 110.827 541.442 107.84C541.535 107.653 542.609 107.047 544.662 106.02C546.342 105.927 547.462 105.927 548.022 106.02C548.675 106.113 549.609 106.207 550.822 106.3C552.129 106.393 553.062 106.533 553.622 106.72C555.395 107.28 556.282 108.82 556.282 111.34V113.86C556.469 117.22 556.562 119.787 556.562 121.56V124.78C556.562 126.087 556.469 126.833 556.282 127.02C556.375 127.393 556.375 128.28 556.282 129.68V132.2C556.002 135.187 555.909 136.913 556.002 137.38L555.022 144.66C555.675 145.127 556.609 145.36 557.822 145.36C558.942 145.173 562.115 145.127 567.342 145.22L575.042 144.94H576.862C578.635 144.94 579.849 144.707 580.502 144.24C580.502 142.093 580.735 139.527 581.202 136.54C581.762 136.073 581.902 134.02 581.622 130.38C581.622 130.007 581.809 129.26 582.182 128.14C582.182 126.74 582.369 125.2 582.742 123.52C582.742 121.56 583.022 119.88 583.582 118.48C584.235 117.08 584.702 115.913 584.982 114.98C585.355 113.393 586.429 112.04 588.202 110.92C590.722 109.053 592.962 107.933 594.922 107.56H597.442C599.962 108.027 600.802 110.5 599.962 114.98C599.962 116.473 599.589 118.34 598.842 120.58C598.002 125.153 597.582 128.093 597.582 129.4C597.582 130.893 597.209 133.367 596.462 136.82C596.649 138.78 596.649 140.04 596.462 140.6C596.369 141.067 596.322 141.767 596.322 142.7C596.135 144.753 596.042 146.2 596.042 147.04C595.855 149.84 595.762 152.127 595.762 153.9C595.762 155.673 595.622 157.587 595.342 159.64C595.342 161.693 595.015 163.747 594.362 165.8L593.942 175.18C593.942 175.927 594.269 180.873 594.922 190.02C595.482 190.673 595.669 191.84 595.482 193.52C595.295 195.2 594.969 196.367 594.502 197.02C594.035 197.673 593.522 198.047 592.962 198.14C592.495 198.233 591.749 198.28 590.722 198.28C588.669 199.587 586.942 200.1 585.542 199.82C584.515 199.82 583.209 199.353 581.622 198.42C580.035 197.487 578.962 196.273 578.402 194.78C578.402 194.033 578.262 193.193 577.982 192.26C577.795 191.327 577.795 190.3 577.982 189.18C578.169 188.06 578.215 186.893 578.122 185.68C578.122 184.373 578.122 182.88 578.122 181.2L578.262 179.52C578.075 179.147 578.169 178.54 578.542 177.7C578.915 176.767 578.962 176.067 578.682 175.6V171.68L579.382 164.26C578.449 163.513 578.402 161.927 579.242 159.5L579.522 158.38C578.402 158.66 577.375 158.8 576.442 158.8C573.829 159.453 570.935 159.78 567.762 159.78L555.162 159.5C555.162 160.247 555.209 160.713 555.302 160.9C555.115 162.393 555.069 164.727 555.162 167.9V170.7C555.255 173.22 555.302 176.767 555.302 181.34C555.675 186.567 555.862 190.207 555.862 192.26L555.722 193.24C555.722 194.08 555.629 194.78 555.442 195.34C555.442 197.207 554.975 198.467 554.042 199.12C553.202 199.773 551.802 200.193 549.842 200.38C547.882 200.567 546.109 200.053 544.522 198.84C542.375 197.72 541.162 196.647 540.882 195.62C540.882 194.967 540.649 194.033 540.182 192.82C539.715 192.073 539.389 191.14 539.202 190.02C539.202 186.94 539.155 185.213 539.062 184.84C538.782 184.467 538.642 183.767 538.642 182.74C538.642 181.527 538.362 179.567 537.802 176.86ZM658.585 121C658.865 122.213 658.631 123.053 657.885 123.52C657.138 123.893 656.345 124.08 655.505 124.08C654.758 124.08 652.705 124.173 649.345 124.36C647.198 124.827 645.051 125.433 642.905 126.18H642.765C642.765 127.86 642.298 130.333 641.365 133.6C641.365 134.72 641.131 136.54 640.665 139.06C640.665 139.807 640.525 140.553 640.245 141.3C639.965 142.047 639.825 143.213 639.825 144.8C639.171 148.627 638.891 150.727 638.985 151.1C639.078 151.473 639.078 151.987 638.985 152.64C638.891 153.293 638.705 154.273 638.425 155.58C638.145 156.887 638.005 158.427 638.005 160.2C638.005 161.973 637.771 163.56 637.305 164.96V166.5C637.491 169.86 637.351 172.24 636.885 173.64C636.511 175.04 636.325 176.253 636.325 177.28C636.325 178.213 636.091 179.707 635.625 181.76C635.158 183.813 635.018 186.24 635.205 189.04H636.045C638.378 188.853 639.591 188.807 639.685 188.9C639.871 188.9 640.525 188.76 641.645 188.48L643.885 188.62H645.285C645.565 188.62 646.171 188.993 647.105 189.74C648.038 190.393 648.691 191.047 649.065 191.7C649.718 192.353 649.905 193.007 649.625 193.66C649.438 194.22 648.411 195.2 646.545 196.6L643.885 197.44C643.605 197.72 642.951 198.047 641.925 198.42C640.898 198.793 640.011 198.98 639.265 198.98C637.118 199.447 635.858 200.24 635.485 201.36C635.111 202.107 632.871 202.387 628.765 202.2H624.005L621.345 203.04C619.011 203.973 616.958 204.207 615.185 203.74C613.411 203.273 612.198 202.9 611.545 202.62C610.985 202.433 610.285 201.967 609.445 201.22C608.605 200.567 608.231 199.773 608.325 198.84C608.511 198 608.838 196.74 609.305 195.06C610.891 193.753 612.011 192.913 612.665 192.54C617.145 191.14 619.991 190.207 621.205 189.74C621.205 186.66 621.111 184.84 620.925 184.28C621.205 184.187 621.531 182.18 621.905 178.26C621.998 177.887 621.765 177 621.205 175.6V174.76C621.485 172.147 621.438 169.767 621.065 167.62C621.065 167.527 621.251 165.893 621.625 162.72C622.091 162.16 622.091 160.667 621.625 158.24C621.998 156.467 622.325 155.067 622.605 154.04L622.745 152.08C622.745 151.52 623.025 149.84 623.585 147.04V145.64L623.865 144.52C625.545 137.613 626.665 132.573 627.225 129.4C626.478 129.587 626.011 129.68 625.825 129.68L621.205 130.38C617.658 131.313 614.531 130.52 611.825 128C609.491 124.827 609.445 122.12 611.685 119.88C613.085 118.667 615.231 117.827 618.125 117.36C620.645 116.52 622.278 115.913 623.025 115.54C623.958 115.54 626.151 114.513 629.605 112.46C633.058 111.993 635.065 111.76 635.625 111.76L642.205 110.92C643.045 110.827 644.165 110.92 645.565 111.2C646.965 111.387 647.805 111.667 648.085 112.04C649.298 112.32 650.791 112.88 652.565 113.72L655.925 116.8C657.231 118.667 658.118 120.067 658.585 121ZM694.408 198.14L690.908 198.42C687.922 199.073 682.695 197.86 675.228 194.78C674.855 194.78 674.668 194.827 674.668 194.92C671.402 193.147 669.302 191.793 668.368 190.86C664.822 185.54 663.002 181.387 662.908 178.4C662.908 177.933 663.702 176.813 665.288 175.04C665.382 174.76 666.082 174.293 667.388 173.64C668.788 172.987 670.048 172.613 671.168 172.52C672.662 172.707 673.688 173.173 674.248 173.92L677.188 177.84L678.728 179.52L681.248 181.62L683.208 183.58L686.008 185.82C686.382 186.007 686.708 186.147 686.988 186.24C687.362 186.24 688.015 186.333 688.948 186.52C689.975 186.613 690.722 186.567 691.188 186.38C691.655 186.193 692.262 186.007 693.008 185.82C693.755 185.54 694.408 185.26 694.968 184.98C696.182 183.767 696.928 183.067 697.208 182.88L699.028 180.64C699.215 180.453 699.495 179.66 699.868 178.26C699.868 177.047 699.868 176.253 699.868 175.88C699.962 175.507 699.962 175.18 699.868 174.9C699.775 174.527 699.682 174.107 699.588 173.64C699.495 173.173 699.402 172.8 699.308 172.52C699.215 172.147 698.515 171.4 697.208 170.28C696.648 169.16 695.855 167.993 694.828 166.78C694.548 166.5 692.262 165.333 687.968 163.28L683.768 161.04L681.248 158.94C679.755 158.473 678.448 157.727 677.328 156.7C676.302 155.673 675.695 155.113 675.508 155.02C674.202 154.553 672.008 152.64 668.928 149.28C668.928 149.187 668.088 147.46 666.408 144.1L664.868 138.64L665.428 135C664.682 133.133 664.402 131.313 664.588 129.54C664.962 128.98 665.382 127.86 665.848 126.18C665.662 125.34 665.988 124.033 666.828 122.26C667.762 120.393 668.368 119.273 668.648 118.9C668.928 118.527 669.162 118.153 669.348 117.78C669.348 117.127 671.355 114.793 675.368 110.78L682.228 107C687.268 106.44 690.488 106.16 691.888 106.16C695.155 106.44 697.395 106.907 698.608 107.56C700.662 108.867 702.248 109.94 703.368 110.78C707.475 114.327 709.808 117.5 710.368 120.3C712.328 125.527 712.608 130.613 711.208 135.56C711.208 136.027 709.902 136.82 707.288 137.94H703.788C702.295 137.94 700.942 137.66 699.728 137.1C698.515 136.447 696.975 135.28 695.108 133.6C694.362 133.227 693.755 131.967 693.288 129.82C693.195 127.58 692.682 126.227 691.748 125.76C691.655 125.667 691.282 124.827 690.628 123.24L689.088 121.56C688.435 120.72 687.828 120.3 687.268 120.3C686.802 120.3 686.242 120.487 685.588 120.86C684.282 121.887 683.115 123.24 682.088 124.92C681.155 126.6 680.642 128.467 680.548 130.52C680.548 132.573 680.688 134.16 680.968 135.28C681.248 136.4 681.995 137.847 683.208 139.62C684.422 141.3 685.168 142.14 685.448 142.14C685.728 142.607 687.548 144.38 690.908 147.46L696.928 151.66L699.308 153.9L702.108 155.58C703.602 156.14 705.095 156.98 706.588 158.1C708.082 159.127 709.015 159.967 709.388 160.62L711.488 162.72L713.588 165.66C714.148 166.313 714.988 168.787 716.108 173.08L716.388 178.54L715.688 181.76C715.408 182.04 714.942 183.02 714.288 184.7C714.382 184.98 713.915 186.24 712.888 188.48C712.608 189.04 711.488 190.113 709.528 191.7C707.662 193.193 706.542 194.033 706.168 194.22C706.075 194.5 705.142 194.967 703.368 195.62C703.088 195.9 702.248 196.273 700.848 196.74C699.542 197.113 698.235 197.253 696.928 197.16L694.408 198.14ZM762.538 122.54C760.111 121.14 755.398 120.44 748.398 120.44L749.238 129.12C749.985 134.16 750.638 143.587 751.198 157.4C752.038 157.213 752.598 156.98 752.878 156.7C753.625 156.14 754.418 155.86 755.258 155.86C756.471 155.58 757.638 154.74 758.758 153.34C761.558 151.007 763.705 149.047 765.198 147.46L769.818 142.14C770.098 142.047 770.565 141.02 771.218 139.06C771.871 137.007 772.291 135.327 772.478 134.02C772.478 131.313 772.198 129.773 771.638 129.4C771.638 129.213 771.078 128.047 769.958 125.9C769.585 125.62 768.465 124.92 766.598 123.8L762.538 122.54ZM733.558 106.44L741.398 105.32L751.478 104.62L756.798 105.32C757.171 105.693 758.058 105.927 759.458 106.02C762.165 105.927 765.805 107.467 770.378 110.64C771.498 111.013 772.431 111.667 773.178 112.6L778.498 119.04C778.685 119.227 778.965 119.74 779.338 120.58C779.711 121.327 780.225 122.213 780.878 123.24C780.691 123.24 780.831 123.613 781.298 124.36C782.511 126.413 783.071 127.627 782.978 128C783.445 128.373 783.911 129.587 784.378 131.64C784.845 133.693 784.985 135.093 784.798 135.84C784.891 135.933 784.798 137.007 784.518 139.06C783.865 143.54 782.698 146.853 781.018 149L779.198 152.36L776.118 156.84L774.298 158.52C770.938 162.253 766.831 165.147 761.978 167.2C761.791 167.293 761.511 167.387 761.138 167.48L757.778 168.6L752.318 170C752.318 172.707 752.645 178.96 753.298 188.76C753.671 192.12 753.951 193.987 754.138 194.36C754.138 197.44 753.951 199.493 753.578 200.52C753.205 201.64 752.598 202.433 751.758 202.9C750.918 203.46 749.471 203.787 747.418 203.88C746.858 204.067 745.878 203.88 744.478 203.32C743.078 202.853 741.958 202.107 741.118 201.08L740.278 196.6C740.465 196.413 740.185 195.527 739.438 193.94C738.785 193.193 738.271 191.887 737.898 190.02L736.918 176.72L736.778 172.24C731.365 172.613 728.098 171.12 726.978 167.76C726.045 165.987 725.858 164.82 726.418 164.26L727.118 162.44C728.238 160.667 730.385 159.78 733.558 159.78H736.498C736.311 159.593 736.218 158.94 736.218 157.82L735.658 151.94V149.42L735.518 147.6C735.611 146.76 735.565 145.827 735.378 144.8V143.96L735.098 140.46V137.8L734.958 136.4C734.958 129.773 734.585 125.573 733.838 123.8C730.758 125.573 728.705 126.553 727.678 126.74C726.651 126.833 724.925 126.133 722.498 124.64C721.471 123.8 720.911 122.867 720.818 121.84C719.138 119.507 718.578 117.593 719.138 116.1C719.325 115.353 720.071 114.187 721.378 112.6C721.471 112.227 722.591 111.387 724.738 110.08C726.418 108.4 729.358 107.187 733.558 106.44ZM817.253 111.34L819.773 110.22C820.053 110.22 820.473 110.08 821.033 109.8C823.086 108.867 825.746 108.167 829.013 107.7C829.573 106.953 830.646 107.187 832.233 108.4C832.979 108.773 833.446 108.96 833.633 108.96C833.913 108.96 834.333 109.333 834.893 110.08C835.546 110.733 835.966 111.293 836.153 111.76L837.693 113.02C838.813 113.673 839.466 114.233 839.653 114.7C839.839 115.073 839.839 115.82 839.653 116.94C839.559 117.967 839.139 118.947 838.393 119.88C837.739 120.72 837.039 121.28 836.293 121.56C833.119 122.773 830.973 123.38 829.853 123.38C828.733 123.38 827.379 123.847 825.793 124.78C824.206 125.713 822.899 126.273 821.873 126.46C820.846 126.647 820.053 126.88 819.493 127.16C819.026 127.44 818.326 127.907 817.393 128.56C815.153 129.867 812.959 130.707 810.813 131.08C810.999 131.08 810.906 131.547 810.533 132.48C810.159 133.413 809.833 134.673 809.553 136.26C809.273 137.753 808.759 139.527 808.013 141.58L806.333 149.14C805.959 150.82 805.913 151.66 806.193 151.66C806.473 151.66 806.706 151.473 806.893 151.1C812.026 149.047 815.059 147.507 815.993 146.48C817.019 145.36 818.513 144.893 820.473 145.08L822.153 144.66C822.433 144.38 823.039 144.24 823.973 144.24C825.653 143.773 827.846 144.893 830.553 147.6L830.133 149.14C829.666 150.073 828.919 151.1 827.893 152.22C826.866 153.34 826.026 154.04 825.373 154.32C824.813 154.6 824.393 154.833 824.113 155.02C823.833 155.113 823.646 155.16 823.553 155.16H823.273C822.713 155.72 822.106 156.187 821.453 156.56C820.706 157.307 819.959 157.867 819.213 158.24C818.466 158.613 817.766 159.033 817.113 159.5C816.459 159.873 815.946 160.153 815.573 160.34C815.293 160.527 814.919 160.76 814.453 161.04C813.986 161.32 813.426 161.647 812.773 162.02C812.213 162.393 811.839 162.58 811.653 162.58C811.466 162.58 810.439 163.42 808.573 165.1C808.013 165.1 807.219 164.867 806.193 164.4C805.166 163.84 804.419 163.28 803.953 162.72C803.393 162.72 803.299 163.98 803.673 166.5C803.673 166.967 803.486 168.133 803.113 170C802.739 173.453 802.693 176.907 802.973 180.36C803.253 183.813 803.673 185.913 804.233 186.66C804.793 187.407 805.399 187.78 806.053 187.78C807.453 187.5 808.526 187.127 809.273 186.66C810.019 186.1 810.719 185.773 811.373 185.68C812.026 185.587 812.726 185.213 813.473 184.56C814.313 183.907 814.919 183.58 815.293 183.58C815.759 183.58 817.113 182.46 819.353 180.22C819.633 179.753 820.239 179.287 821.173 178.82C822.199 178.26 822.713 177.84 822.713 177.56C822.899 177.187 823.553 176.673 824.673 176.02C825.886 175.273 827.286 174.807 828.873 174.62C830.553 174.34 831.813 174.433 832.653 174.9C834.146 175.74 835.966 177.233 838.113 179.38C838.579 180.127 838.533 181.76 837.973 184.28C837.506 186.707 836.713 188.48 835.593 189.6L834.333 190.86C832.746 192.727 830.413 194.687 827.333 196.74C824.906 198.047 823.646 198.7 823.553 198.7C822.993 199.167 822.666 199.447 822.573 199.54C822.106 200.38 821.686 200.707 821.313 200.52C821.033 200.333 820.193 200.333 818.793 200.52C817.486 200.707 816.319 200.707 815.293 200.52C814.733 200.24 814.033 200.1 813.193 200.1C812.353 200.567 809.226 198.98 803.813 195.34C803.066 194.78 802.553 194.5 802.273 194.5C801.993 194.5 801.386 194.407 800.453 194.22C799.706 193.847 798.819 193.427 797.793 192.96C794.713 191.187 792.893 189.973 792.333 189.32C791.773 188.667 791.119 188.107 790.373 187.64C789.626 187.173 789.206 186.66 789.113 186.1C789.019 185.54 788.739 184.933 788.273 184.28C788.273 184.093 787.993 183.253 787.433 181.76C786.686 180.547 786.453 179.66 786.733 179.1C786.826 178.54 786.779 178.12 786.593 177.84C786.406 177.467 786.219 174.76 786.033 169.72C785.846 164.587 785.939 161.787 786.313 161.32C786.686 160.853 786.873 159.733 786.873 157.96C786.686 156.28 786.919 155.02 787.573 154.18C788.319 153.34 788.646 152.267 788.553 150.96C788.459 149.56 788.599 148.487 788.973 147.74C789.346 147.367 789.673 145.92 789.953 143.4L790.513 140.88C791.633 138.64 792.193 137.147 792.193 136.4C792.193 135.56 792.379 134.58 792.753 133.46C792.846 133.273 793.406 131.687 794.433 128.7L795.413 126.74L795.833 125.06C798.166 120.3 799.613 117.547 800.173 116.8C800.173 116.427 800.779 114.7 801.993 111.62C801.899 110.22 802.646 109.24 804.233 108.68C805.819 108.027 807.266 108.073 808.573 108.82C809.973 109.567 810.813 110.08 811.093 110.36C811.373 110.64 811.933 111.013 812.773 111.48C813.053 111.947 814.546 111.9 817.253 111.34ZM871.624 137.38C870.971 140.553 870.644 143.307 870.644 145.64C870.458 146.947 870.224 147.833 869.944 148.3C869.758 148.767 869.664 149.84 869.664 151.52C869.664 153.2 870.178 154.18 871.204 154.46C872.231 154.46 873.724 153.9 875.684 152.78L878.624 150.12C879.651 149.28 882.031 147.74 885.764 145.5L889.264 142.14L890.664 140.32L891.224 139.06C891.971 137.847 892.204 136.587 891.924 135.28L891.644 132.9C890.991 130.007 890.524 128.327 890.244 127.86C890.058 127.3 889.731 126.74 889.264 126.18C888.798 125.527 888.284 124.967 887.724 124.5C887.164 124.033 886.838 123.707 886.744 123.52L882.404 121.42C882.311 121.327 881.751 121.187 880.724 121C879.138 120.347 876.898 120.253 874.004 120.72L873.164 125.2C873.164 125.76 872.884 126.74 872.324 128.14C871.858 129.54 871.764 130.567 872.044 131.22C871.951 131.5 871.904 132.06 871.904 132.9C871.904 133.647 871.811 134.673 871.624 135.98V137.38ZM868.964 164.54C868.218 164.913 867.751 165.1 867.564 165.1C867.471 165.38 867.424 165.893 867.424 166.64V168.32C867.424 168.973 867.004 170.98 866.164 174.34V175.74C866.164 177.14 865.931 178.26 865.464 179.1L864.904 185.26L864.064 188.76C863.878 189.32 863.831 189.833 863.924 190.3C864.111 190.767 864.251 192.493 864.344 195.48C864.531 198.373 864.438 200.473 864.064 201.78L863.224 203.04C861.358 203.6 860.144 203.74 859.584 203.46C859.024 203.18 858.091 202.993 856.784 202.9C855.478 202.807 854.731 202.713 854.544 202.62C854.451 202.62 853.984 202.433 853.144 202.06C852.398 201.78 851.884 201.547 851.604 201.36C851.418 201.173 851.091 200.893 850.624 200.52C849.411 199.68 848.804 197.86 848.804 195.06C848.618 194.5 848.664 193.847 848.944 193.1C848.384 192.82 848.198 192.073 848.384 190.86C848.664 190.3 848.804 189.413 848.804 188.2C848.804 186.987 848.944 186.007 849.224 185.26V183.02C849.224 182.18 849.551 180.453 850.204 177.84C850.204 177.093 850.344 176.44 850.624 175.88C850.438 175.693 850.671 174.9 851.324 173.5C851.138 173.22 851.371 171.867 852.024 169.44C851.744 169.16 851.698 168.32 851.884 166.92C852.071 165.427 852.304 164.26 852.584 163.42C852.584 161.647 852.724 160.573 853.004 160.2C852.911 159.92 852.771 159.033 852.584 157.54L852.864 155.86C852.864 154.74 853.284 153.013 854.124 150.68C854.871 145.36 855.244 142.467 855.244 142C856.551 136.587 857.204 133.227 857.204 131.92C857.484 131.827 857.764 130.94 858.044 129.26C858.324 127.487 858.231 126.227 857.764 125.48C853.564 127.067 850.064 128.933 847.264 131.08C845.398 132.667 844.138 133.273 843.484 132.9C842.178 132.153 841.524 131.08 841.524 129.68L840.964 127.44C840.871 127.347 840.638 126.833 840.264 125.9C839.798 124.873 839.611 124.127 839.704 123.66C839.704 123.193 839.658 122.587 839.564 121.84C839.378 121 839.378 120.44 839.564 120.16C840.404 118.573 841.524 117.407 842.924 116.66L846.284 114.28L848.664 112.88C848.851 112.88 850.624 111.9 853.984 109.94C854.171 109.567 854.871 109.24 856.084 108.96C857.298 108.68 860.004 107.84 864.204 106.44C867.004 106.16 868.638 106.02 869.104 106.02C872.091 105.647 874.611 105.927 876.664 106.86C878.064 107.233 878.858 107.42 879.044 107.42C879.324 107.327 879.651 107.327 880.024 107.42C880.491 107.513 880.818 107.56 881.004 107.56C881.004 107.747 881.424 107.84 882.264 107.84L884.924 108.82C885.391 108.82 885.998 109.053 886.744 109.52C887.304 109.427 888.051 109.66 888.984 110.22C890.011 110.687 891.458 111.387 893.324 112.32C895.284 113.253 896.264 114.047 896.264 114.7C896.824 114.887 897.431 115.4 898.084 116.24L899.764 117.92L902.424 121.42C902.611 121.513 903.031 121.98 903.684 122.82C904.618 124.407 905.131 125.34 905.224 125.62C905.318 125.9 905.411 126.18 905.504 126.46C905.598 126.647 905.971 127.44 906.624 128.84C907.931 131.453 908.444 133.74 908.164 135.7C908.164 135.793 907.698 137.24 906.764 140.04C905.084 144.987 902.518 148.907 899.064 151.8C898.318 152.36 897.338 153.107 896.124 154.04C894.911 154.88 893.931 155.627 893.184 156.28C889.638 158.427 887.538 159.78 886.884 160.34C886.324 160.9 885.811 161.367 885.344 161.74L883.804 162.44L884.084 163.28C884.084 162.907 884.318 163.093 884.784 163.84C885.344 164.493 885.718 165.007 885.904 165.38C885.904 165.847 886.371 166.407 887.304 167.06C887.491 166.967 887.724 167.06 888.004 167.34C888.564 167.9 888.844 168.787 888.844 170C889.498 170.373 890.478 171.493 891.784 173.36C893.091 174.293 894.211 175.6 895.144 177.28C895.798 178.027 896.311 178.54 896.684 178.82C897.058 179.38 897.804 180.127 898.924 181.06C900.044 181.993 900.791 182.647 901.164 183.02C901.538 183.3 901.958 183.627 902.424 184C904.104 185.307 905.271 186.287 905.924 186.94L907.604 188.06C911.058 191.42 912.878 193.24 913.064 193.52C912.971 194.173 912.318 195.153 911.104 196.46C911.011 197.953 908.864 199.213 904.664 200.24C903.264 200.24 901.351 199.587 898.924 198.28C896.498 197.067 894.631 195.76 893.324 194.36C889.218 191.373 886.511 189.04 885.204 187.36C881.378 183.533 878.624 179.847 876.944 176.3C876.571 176.02 876.104 175.553 875.544 174.9C875.078 174.247 874.611 173.733 874.144 173.36L872.324 169.86C870.644 167.527 869.804 166.36 869.804 166.36L868.964 164.54ZM945.287 198.14L941.787 198.42C938.801 199.073 933.574 197.86 926.107 194.78C925.734 194.78 925.547 194.827 925.547 194.92C922.281 193.147 920.181 191.793 919.247 190.86C915.701 185.54 913.881 181.387 913.787 178.4C913.787 177.933 914.581 176.813 916.167 175.04C916.261 174.76 916.961 174.293 918.267 173.64C919.667 172.987 920.927 172.613 922.047 172.52C923.541 172.707 924.567 173.173 925.127 173.92L928.067 177.84L929.607 179.52L932.127 181.62L934.087 183.58L936.887 185.82C937.261 186.007 937.587 186.147 937.867 186.24C938.241 186.24 938.894 186.333 939.827 186.52C940.854 186.613 941.601 186.567 942.067 186.38C942.534 186.193 943.141 186.007 943.887 185.82C944.634 185.54 945.287 185.26 945.847 184.98C947.061 183.767 947.807 183.067 948.087 182.88L949.907 180.64C950.094 180.453 950.374 179.66 950.747 178.26C950.747 177.047 950.747 176.253 950.747 175.88C950.841 175.507 950.841 175.18 950.747 174.9C950.654 174.527 950.561 174.107 950.467 173.64C950.374 173.173 950.281 172.8 950.187 172.52C950.094 172.147 949.394 171.4 948.087 170.28C947.527 169.16 946.734 167.993 945.707 166.78C945.427 166.5 943.141 165.333 938.847 163.28L934.647 161.04L932.127 158.94C930.634 158.473 929.327 157.727 928.207 156.7C927.181 155.673 926.574 155.113 926.387 155.02C925.081 154.553 922.887 152.64 919.807 149.28C919.807 149.187 918.967 147.46 917.287 144.1L915.747 138.64L916.307 135C915.561 133.133 915.281 131.313 915.467 129.54C915.841 128.98 916.261 127.86 916.727 126.18C916.541 125.34 916.867 124.033 917.707 122.26C918.641 120.393 919.247 119.273 919.527 118.9C919.807 118.527 920.041 118.153 920.227 117.78C920.227 117.127 922.234 114.793 926.247 110.78L933.107 107C938.147 106.44 941.367 106.16 942.767 106.16C946.034 106.44 948.274 106.907 949.487 107.56C951.541 108.867 953.127 109.94 954.247 110.78C958.354 114.327 960.687 117.5 961.247 120.3C963.207 125.527 963.487 130.613 962.087 135.56C962.087 136.027 960.781 136.82 958.167 137.94H954.667C953.174 137.94 951.821 137.66 950.607 137.1C949.394 136.447 947.854 135.28 945.987 133.6C945.241 133.227 944.634 131.967 944.167 129.82C944.074 127.58 943.561 126.227 942.627 125.76C942.534 125.667 942.161 124.827 941.507 123.24L939.967 121.56C939.314 120.72 938.707 120.3 938.147 120.3C937.681 120.3 937.121 120.487 936.467 120.86C935.161 121.887 933.994 123.24 932.967 124.92C932.034 126.6 931.521 128.467 931.427 130.52C931.427 132.573 931.567 134.16 931.847 135.28C932.127 136.4 932.874 137.847 934.087 139.62C935.301 141.3 936.047 142.14 936.327 142.14C936.607 142.607 938.427 144.38 941.787 147.46L947.807 151.66L950.187 153.9L952.987 155.58C954.481 156.14 955.974 156.98 957.467 158.1C958.961 159.127 959.894 159.967 960.267 160.62L962.367 162.72L964.467 165.66C965.027 166.313 965.867 168.787 966.987 173.08L967.267 178.54L966.567 181.76C966.287 182.04 965.821 183.02 965.167 184.7C965.261 184.98 964.794 186.24 963.767 188.48C963.487 189.04 962.367 190.113 960.407 191.7C958.541 193.193 957.421 194.033 957.047 194.22C956.954 194.5 956.021 194.967 954.247 195.62C953.967 195.9 953.127 196.273 951.727 196.74C950.421 197.113 949.114 197.253 947.807 197.16L945.287 198.14Z" fill="white"/>
<defs>
<linearGradient id="paint0_linear_750_465" x1="-162.353" y1="104.657" x2="518.247" y2="188.803" gradientUnits="userSpaceOnUse">
<stop offset="0.2391" stop-color="#B5AFFF"/>
<stop offset="0.799" stop-color="#5D5FEF"/>
</linearGradient>
<clipPath id="clip0_750_465">
<rect width="363" height="157" fill="white" transform="translate(20 54)"/>
</clipPath>
</defs>
</svg>
